<svg width="40" height="40" viewBox="0 0 40 40" fill="none" xmlns="http://www.w3.org/2000/svg">
<path d="M28.3333 36.666C26.0278 36.666 24.0625 35.8535 22.4375 34.2285C20.8125 32.6035 20 30.6382 20 28.3327C20 26.0271 20.8125 24.0618 22.4375 22.4368C24.0625 20.8118 26.0278 19.9993 28.3333 19.9993C30.6389 19.9993 32.6042 20.8118 34.2292 22.4368C35.8542 24.0618 36.6667 26.0271 36.6667 28.3327C36.6667 30.6382 35.8542 32.6035 34.2292 34.2285C32.6042 35.8535 30.6389 36.666 28.3333 36.666ZM31.125 32.291L32.2917 31.1243L29.1667 27.9993V23.3327H27.5V28.666L31.125 32.291ZM8.33333 34.9994C7.41667 34.9994 6.63194 34.673 5.97917 34.0202C5.32639 33.3674 5 32.5827 5 31.666V8.33268C5 7.41602 5.32639 6.63129 5.97917 5.97852C6.63194 5.32574 7.41667 4.99935 8.33333 4.99935H15.2917C15.5972 4.02713 16.1944 3.22852 17.0833 2.60352C17.9722 1.97852 18.9444 1.66602 20 1.66602C21.1111 1.66602 22.1042 1.97852 22.9792 2.60352C23.8542 3.22852 24.4444 4.02713 24.75 4.99935H31.6667C32.5833 4.99935 33.3681 5.32574 34.0208 5.97852C34.6736 6.63129 35 7.41602 35 8.33268V18.7493C34.5 18.3882 33.9722 18.0827 33.4167 17.8327C32.8611 17.5827 32.2778 17.3605 31.6667 17.166V8.33268H28.3333V13.3327H11.6667V8.33268H8.33333V31.666H17.1667C17.3611 32.2771 17.5833 32.8605 17.8333 33.416C18.0833 33.9716 18.3889 34.4994 18.75 34.9994H8.33333ZM20 8.33268C20.4722 8.33268 20.8681 8.17296 21.1875 7.85352C21.5069 7.53407 21.6667 7.13824 21.6667 6.66602C21.6667 6.19379 21.5069 5.79796 21.1875 5.47852C20.8681 5.15907 20.4722 4.99935 20 4.99935C19.5278 4.99935 19.1319 5.15907 18.8125 5.47852C18.4931 5.79796 18.3333 6.19379 18.3333 6.66602C18.3333 7.13824 18.4931 7.53407 18.8125 7.85352C19.1319 8.17296 19.5278 8.33268 20 8.33268Z" fill="#CB2028"/>
</svg>
