<svg width="40" height="40" viewBox="0 0 40 40" fill="none" xmlns="http://www.w3.org/2000/svg">
<path d="M9.99935 36.6673C9.08268 36.6673 8.29796 36.3409 7.64518 35.6881C6.9924 35.0354 6.66602 34.2506 6.66602 33.334V6.66732C6.66602 5.75065 6.9924 4.96593 7.64518 4.31315C8.29796 3.66037 9.08268 3.33398 9.99935 3.33398H23.3327L33.3327 13.334V33.334C33.3327 34.2506 33.0063 35.0354 32.3535 35.6881C31.7007 36.3409 30.916 36.6673 29.9993 36.6673H9.99935ZM18.3327 31.6673H21.666V30.0006H23.3327C23.8049 30.0006 24.2007 29.8409 24.5202 29.5215C24.8396 29.202 24.9993 28.8062 24.9993 28.334V23.334C24.9993 22.8618 24.8396 22.4659 24.5202 22.1465C24.2007 21.827 23.8049 21.6673 23.3327 21.6673H18.3327V20.0007H24.9993V16.6673H21.666V15.0007H18.3327V16.6673H16.666C16.1938 16.6673 15.798 16.827 15.4785 17.1465C15.1591 17.4659 14.9993 17.8618 14.9993 18.334V23.334C14.9993 23.8062 15.1591 24.202 15.4785 24.5215C15.798 24.8409 16.1938 25.0007 16.666 25.0007H21.666V26.6673H14.9993V30.0006H18.3327V31.6673ZM21.9577 13.334H28.6243L21.9577 6.66732V13.334Z" fill="#CB2028"/>
</svg>
