<svg width="40" height="40" viewBox="0 0 40 40" fill="none" xmlns="http://www.w3.org/2000/svg">
<path d="M13.3333 23.334C12.8611 23.334 12.4653 23.1743 12.1458 22.8548C11.8264 22.5354 11.6667 22.1395 11.6667 21.6673C11.6667 21.1951 11.8264 20.7993 12.1458 20.4798C12.4653 20.1604 12.8611 20.0007 13.3333 20.0007C13.8056 20.0007 14.2014 20.1604 14.5208 20.4798C14.8403 20.7993 15 21.1951 15 21.6673C15 22.1395 14.8403 22.5354 14.5208 22.8548C14.2014 23.1743 13.8056 23.334 13.3333 23.334ZM20 23.334C19.5278 23.334 19.1319 23.1743 18.8125 22.8548C18.4931 22.5354 18.3333 22.1395 18.3333 21.6673C18.3333 21.1951 18.4931 20.7993 18.8125 20.4798C19.1319 20.1604 19.5278 20.0007 20 20.0007C20.4722 20.0007 20.8681 20.1604 21.1875 20.4798C21.5069 20.7993 21.6667 21.1951 21.6667 21.6673C21.6667 22.1395 21.5069 22.5354 21.1875 22.8548C20.8681 23.1743 20.4722 23.334 20 23.334ZM26.6667 23.334C26.1944 23.334 25.7986 23.1743 25.4792 22.8548C25.1597 22.5354 25 22.1395 25 21.6673C25 21.1951 25.1597 20.7993 25.4792 20.4798C25.7986 20.1604 26.1944 20.0007 26.6667 20.0007C27.1389 20.0007 27.5347 20.1604 27.8542 20.4798C28.1736 20.7993 28.3333 21.1951 28.3333 21.6673C28.3333 22.1395 28.1736 22.5354 27.8542 22.8548C27.5347 23.1743 27.1389 23.334 26.6667 23.334ZM8.33333 36.6673C7.41667 36.6673 6.63194 36.3409 5.97917 35.6881C5.32639 35.0354 5 34.2506 5 33.334V10.0007C5 9.08398 5.32639 8.29926 5.97917 7.64648C6.63194 6.99371 7.41667 6.66732 8.33333 6.66732H10V3.33398H13.3333V6.66732H26.6667V3.33398H30V6.66732H31.6667C32.5833 6.66732 33.3681 6.99371 34.0208 7.64648C34.6736 8.29926 35 9.08398 35 10.0007V33.334C35 34.2506 34.6736 35.0354 34.0208 35.6881C33.3681 36.3409 32.5833 36.6673 31.6667 36.6673H8.33333ZM8.33333 33.334H31.6667V16.6673H8.33333V33.334Z" fill="#CB2028"/>
</svg>
