<svg width="40" height="40" viewBox="0 0 40 40" fill="none" xmlns="http://www.w3.org/2000/svg">
<path d="M27.5833 37.5007L21.6667 31.584L24 29.2507L27.5417 32.7923L34.625 25.709L36.9583 28.084L27.5833 37.5007ZM8.33333 36.6673C7.41667 36.6673 6.63194 36.3409 5.97917 35.6882C5.32639 35.0354 5 34.2507 5 33.334V10.0007C5 9.08398 5.32639 8.29926 5.97917 7.64648C6.63194 6.99371 7.41667 6.66732 8.33333 6.66732H10V3.33398H13.3333V6.66732H26.6667V3.33398H30V6.66732H31.6667C32.5833 6.66732 33.3681 6.99371 34.0208 7.64648C34.6736 8.29926 35 9.08398 35 10.0007V20.584L31.6667 23.959V16.6673H8.33333V33.334H18.75L22.0417 36.6673H8.33333Z" fill="#CB2028"/>
</svg>
