<svg width="137" height="137" viewBox="0 0 137 137" fill="none" xmlns="http://www.w3.org/2000/svg">
<g filter="url(#filter0_b_1224_2514)">
<circle cx="68.5" cy="68.5" r="60.5" fill="#CB2028"/>
<circle cx="68.5" cy="68.5" r="64.5" stroke="white" stroke-width="8"/>
</g>
<path d="M38.4742 100.632C36.8605 100.632 35.4269 100.352 34.1733 99.7908C32.9264 99.2232 31.9462 98.4429 31.2327 97.4497C30.5193 96.4565 30.1592 95.3146 30.1525 94.0242H35.7536C35.7603 94.4228 35.8803 94.7809 36.1137 95.0984C36.3538 95.4092 36.6805 95.6525 37.0939 95.8281C37.5073 96.0038 37.9808 96.0916 38.5142 96.0916C39.0276 96.0916 39.4811 96.0004 39.8745 95.818C40.2679 95.6288 40.5746 95.3687 40.7946 95.0376C41.0147 94.7066 41.1214 94.3282 41.1147 93.9025C41.1214 93.4836 40.9947 93.112 40.7346 92.7877C40.4812 92.4634 40.1245 92.21 39.6644 92.0276C39.2043 91.8452 38.6742 91.754 38.0741 91.754H35.9937V87.8623H38.0741C38.6275 87.8623 39.1143 87.7711 39.5344 87.5886C39.9611 87.4062 40.2912 87.1528 40.5246 86.8285C40.7646 86.5042 40.8813 86.1326 40.8747 85.7137C40.8813 85.3083 40.7846 84.9502 40.5846 84.6394C40.3846 84.3286 40.1045 84.0854 39.7444 83.9097C39.391 83.7341 38.981 83.6462 38.5142 83.6462C38.0074 83.6462 37.554 83.7374 37.1539 83.9199C36.7605 84.1023 36.4504 84.3557 36.2237 84.68C35.997 85.0043 35.8803 85.3759 35.8737 85.7948H30.5526C30.5593 84.5246 30.9027 83.403 31.5828 82.4301C32.2696 81.4571 33.2098 80.6937 34.4034 80.1396C35.5969 79.5856 36.9672 79.3086 38.5142 79.3086C40.0278 79.3086 41.3648 79.5687 42.525 80.089C43.6919 80.6092 44.6021 81.3254 45.2555 82.2375C45.9157 83.1429 46.2424 84.18 46.2357 85.3489C46.2491 86.511 45.8557 87.4636 45.0555 88.2068C44.262 88.9501 43.2551 89.3892 42.0349 89.5244V89.6865C43.6886 89.8689 44.9321 90.3824 45.7656 91.227C46.5991 92.0648 47.0092 93.1188 46.9959 94.389C47.0025 95.6052 46.6425 96.6828 45.9157 97.622C45.1955 98.5611 44.192 99.2976 42.9051 99.8313C41.6248 100.365 40.1479 100.632 38.4742 100.632Z" fill="white"/>
<path d="M57.6805 100.632C56.1069 100.632 54.7099 100.352 53.4897 99.7908C52.2761 99.2232 51.3192 98.4429 50.6191 97.4497C49.9256 96.4565 49.5722 95.3146 49.5589 94.0242H54.96C54.98 94.7403 55.2534 95.3113 55.7801 95.7369C56.3136 96.1626 56.947 96.3754 57.6805 96.3754C58.2473 96.3754 58.7474 96.2538 59.1808 96.0105C59.6142 95.7606 59.9543 95.4092 60.201 94.9565C60.4477 94.5039 60.5677 93.9769 60.5611 93.3755C60.5677 92.7675 60.4477 92.2404 60.201 91.7945C59.9543 91.3418 59.6142 90.9939 59.1808 90.7506C58.7474 90.5007 58.2473 90.3757 57.6805 90.3757C57.0937 90.3757 56.5503 90.5209 56.0502 90.8115C55.5567 91.0952 55.1933 91.4905 54.96 91.9972L50.079 91.0243L50.8792 79.5924H64.6419V84.0922H55.4401L55.04 88.673H55.16C55.4801 88.0447 56.0335 87.5244 56.8203 87.1123C57.6072 86.6934 58.5207 86.4839 59.5609 86.4839C60.7811 86.4839 61.868 86.7711 62.8215 87.3454C63.7817 87.9197 64.5385 88.7136 65.092 89.727C65.6521 90.7338 65.9288 91.8959 65.9221 93.2134C65.9288 94.6593 65.5887 95.943 64.9019 97.0646C64.2218 98.1794 63.2649 99.0543 62.0314 99.6894C60.7978 100.318 59.3475 100.632 57.6805 100.632Z" fill="white"/>
<path d="M77.2419 100.916C75.3815 100.909 73.7745 100.473 72.4209 99.6084C71.0673 98.7435 70.0238 97.497 69.2903 95.8687C68.5568 94.2404 68.1934 92.2877 68.2001 90.0108C68.2068 87.7271 68.5735 85.788 69.3003 84.1935C70.0338 82.599 71.074 81.3862 72.4209 80.5552C73.7745 79.7241 75.3815 79.3086 77.2419 79.3086C79.1023 79.3086 80.7093 79.7275 82.0629 80.5653C83.4165 81.3963 84.46 82.6091 85.1935 84.2036C85.927 85.7982 86.2904 87.7339 86.2837 90.0108C86.2837 92.3013 85.917 94.2606 85.1835 95.8889C84.45 97.5172 83.4065 98.7638 82.0529 99.6286C80.7059 100.487 79.1023 100.916 77.2419 100.916ZM77.2419 96.3349C78.2021 96.3349 78.9889 95.8281 79.6024 94.8147C80.2225 93.7944 80.5292 92.1932 80.5225 90.0108C80.5225 88.5852 80.3825 87.4197 80.1025 86.5144C79.8224 85.609 79.4357 84.9401 78.9422 84.5077C78.4488 84.0685 77.882 83.8489 77.2419 83.8489C76.2817 83.8489 75.4982 84.3422 74.8914 85.3286C74.2846 86.315 73.9746 87.8758 73.9612 90.0108C73.9546 91.4635 74.0913 92.6593 74.3713 93.5985C74.6514 94.5309 75.0381 95.22 75.5316 95.666C76.0317 96.1119 76.6018 96.3349 77.2419 96.3349Z" fill="white"/>
<path d="M97.816 100.916C95.9556 100.909 94.3486 100.473 92.995 99.6084C91.6414 98.7435 90.5979 97.497 89.8644 95.8687C89.1309 94.2404 88.7675 92.2877 88.7742 90.0108C88.7809 87.7271 89.1476 85.788 89.8744 84.1935C90.6079 82.599 91.6481 81.3862 92.995 80.5552C94.3486 79.7241 95.9556 79.3086 97.816 79.3086C99.6764 79.3086 101.283 79.7275 102.637 80.5653C103.991 81.3963 105.034 82.6091 105.768 84.2036C106.501 85.7982 106.864 87.7339 106.858 90.0108C106.858 92.3013 106.491 94.2606 105.758 95.8889C105.024 97.5172 103.981 98.7638 102.627 99.6286C101.28 100.487 99.6764 100.916 97.816 100.916ZM97.816 96.3349C98.7762 96.3349 99.563 95.8281 100.176 94.8147C100.797 93.7944 101.103 92.1932 101.097 90.0108C101.097 88.5852 100.957 87.4197 100.677 86.5144C100.397 85.609 100.01 84.9401 99.5163 84.5077C99.0229 84.0685 98.4561 83.8489 97.816 83.8489C96.8558 83.8489 96.0723 84.3422 95.4655 85.3286C94.8587 86.315 94.5487 87.8758 94.5353 90.0108C94.5287 91.4635 94.6654 92.6593 94.9454 93.5985C95.2255 94.5309 95.6122 95.22 96.1057 95.666C96.6058 96.1119 97.1759 96.3349 97.816 96.3349Z" fill="white"/>
<g clip-path="url(#clip0_1224_2514)">
<path d="M70.6631 58.5644C68.1816 58.5644 66.0076 56.8942 64.8268 54.4093H72.6361V50.9657H63.9193C63.8975 50.6872 63.8858 50.4082 63.8858 50.1232C63.8858 49.8409 63.8975 49.5584 63.9193 49.2836H72.6362V45.8393H64.8269C66.0077 43.3547 68.1816 41.685 70.6632 41.685C73.035 41.685 75.2684 43.2727 76.4914 45.8268L79.5987 44.3416C77.7974 40.5772 74.3738 38.2402 70.6631 38.2402C67.8737 38.2402 65.2701 39.5149 63.3319 41.8325C62.3571 42.9983 61.6123 44.3587 61.1226 45.8393H57.3771V49.2835H60.4663C60.4497 49.5602 60.4412 49.8427 60.4412 50.1231C60.4412 50.4064 60.4497 50.6853 60.4663 50.9657H57.3771V54.4093H61.1226C61.6123 55.8897 62.3571 57.2486 63.332 58.4134C65.2702 60.7311 67.8738 62.0081 70.6632 62.0081C74.3739 62.0081 77.7974 59.6715 79.5987 55.9071L76.4914 54.4191C75.2683 56.9765 73.035 58.5644 70.6631 58.5644Z" fill="white"/>
</g>
<path d="M25.8986 64.3105L25.7586 65.2506L18.7914 61.4239L18.9293 60.4982L26.7063 58.887L26.5663 59.8271L20.031 61.1074L20.0223 61.1652L25.8986 64.3105ZM23.0706 63.5307L23.6349 59.7415L24.4268 59.8605L23.8625 63.6497L23.0706 63.5307Z" fill="white"/>
<path d="M28.3921 53.2314L21.5316 50.3035L21.8846 49.469L28.0082 52.0825L29.3632 48.8792L30.1001 49.1937L28.3921 53.2314Z" fill="white"/>
<path d="M32.8948 44.3294L26.8963 39.8846L27.4322 39.155L32.7863 43.1223L34.8433 40.3215L35.4876 40.799L32.8948 44.3294Z" fill="white"/>
<path d="M42.0991 25.2767L46.0287 31.639L45.2617 32.117L41.332 25.7547L42.0991 25.2767Z" fill="white"/>
<path d="M54.9869 19.5493L57.3422 26.653L56.5134 26.9302L50.8103 22.6419L50.7413 22.665L52.5905 28.2424L51.7341 28.5289L49.3788 21.4253L50.2076 21.148L55.9291 25.4456L55.9982 25.4225L54.1443 19.8311L54.9869 19.5493Z" fill="white"/>
<path d="M69.5747 20.0407L68.6728 20.076C68.6093 19.8175 68.5071 19.5922 68.3661 19.4002C68.2275 19.208 68.061 19.0487 67.8667 18.9222C67.6747 18.7931 67.4635 18.6989 67.2329 18.6397C67.0023 18.5804 66.7634 18.5556 66.5161 18.5653C66.0651 18.5829 65.661 18.7134 65.3038 18.9567C64.949 19.1998 64.6723 19.5485 64.4738 20.0026C64.2778 20.4567 64.1923 21.0076 64.2174 21.6554C64.2426 22.3032 64.3705 22.8458 64.6012 23.2831C64.8342 23.7203 65.1371 24.0463 65.5097 24.261C65.8847 24.4756 66.2976 24.574 66.7486 24.5564C66.9959 24.5467 67.2322 24.5033 67.4575 24.4262C67.6828 24.3491 67.8862 24.2399 68.0676 24.0986C68.2515 23.9548 68.405 23.7817 68.5283 23.5793C68.6539 23.3744 68.7384 23.1418 68.7817 22.8816L69.6836 22.8463C69.6306 23.2313 69.5202 23.5783 69.3525 23.8873C69.1848 24.1963 68.9717 24.462 68.7132 24.6843C68.4547 24.9042 68.1614 25.0755 67.8335 25.1981C67.508 25.3206 67.1573 25.3892 66.7815 25.4039C66.1463 25.4288 65.5753 25.295 65.0686 25.0027C64.5618 24.7103 64.1555 24.2823 63.8495 23.7186C63.5435 23.155 63.3752 22.4786 63.3446 21.6896C63.3139 20.9005 63.4293 20.213 63.6907 19.6272C63.9521 19.0413 64.324 18.5828 64.8065 18.2517C65.2891 17.9206 65.8479 17.7426 66.4832 17.7178C66.859 17.703 67.2139 17.744 67.5479 17.8407C67.8843 17.9373 68.19 18.0863 68.465 18.2877C68.7398 18.4867 68.9728 18.7337 69.1639 19.0287C69.355 19.3212 69.4919 19.6585 69.5747 20.0407Z" fill="white"/>
<path d="M75.388 25.8014L76.9733 18.4855L77.8553 18.6783L76.4402 25.2084L79.826 25.9486L79.6557 26.7345L75.388 25.8014Z" fill="white"/>
<path d="M92.6626 24.057L93.4683 24.4656L91.2437 28.8908C91.014 29.3477 90.7017 29.7013 90.3068 29.9515C89.9152 30.2006 89.4736 30.3302 88.9819 30.3402C88.4914 30.3481 87.9852 30.2196 87.4632 29.9549C86.9412 29.6901 86.5377 29.3572 86.2528 28.956C85.969 28.5527 85.8096 28.1182 85.7745 27.6527C85.7427 27.186 85.8416 26.7243 86.0713 26.2674L88.296 21.8422L89.1017 22.2509L86.9099 26.6108C86.7458 26.9371 86.6713 27.2638 86.6863 27.5909C86.7024 27.9158 86.8059 28.2181 86.9969 28.4979C87.1911 28.7766 87.4734 29.0099 87.8438 29.1978C88.2142 29.3856 88.5686 29.4753 88.9072 29.4669C89.2469 29.4562 89.5506 29.3604 89.8183 29.1795C90.0892 28.9974 90.3067 28.7432 90.4708 28.4169L92.6626 24.057Z" fill="white"/>
<path d="M101.674 33.0488C101.888 32.7436 101.947 32.4107 101.851 32.05C101.756 31.6894 101.54 31.3578 101.204 31.0553C100.959 30.8341 100.708 30.6804 100.452 30.5944C100.199 30.51 99.9578 30.4913 99.7301 30.5384C99.5043 30.5871 99.312 30.7003 99.1533 30.8782C99.0205 31.0271 98.9416 31.1868 98.9165 31.3573C98.8949 31.5276 98.9085 31.6986 98.9574 31.8702C99.0079 32.0401 99.0744 32.2029 99.1568 32.3589C99.2408 32.5131 99.3222 32.6501 99.4009 32.7701L99.8287 33.43C99.9392 33.5982 100.053 33.7956 100.17 34.0222C100.289 34.2504 100.378 34.4958 100.437 34.7583C100.5 35.0207 100.504 35.2897 100.45 35.5653C100.397 35.841 100.253 36.1095 100.02 36.3709C99.7513 36.6722 99.4298 36.8737 99.0556 36.9755C98.6832 37.0788 98.2831 37.0672 97.8552 36.9406C97.4291 36.8156 97.0028 36.5612 96.5763 36.1774C96.1787 35.8195 95.892 35.4453 95.716 35.0545C95.5418 34.6654 95.4744 34.2808 95.5138 33.9006C95.555 33.5221 95.7008 33.1706 95.9511 32.8461L96.6451 33.4707C96.4753 33.6975 96.3904 33.9352 96.3902 34.1837C96.3934 34.4321 96.4599 34.6753 96.5898 34.9132C96.723 35.151 96.8999 35.369 97.1204 35.5675C97.377 35.7984 97.6446 35.9641 97.9233 36.0644C98.2036 36.1628 98.4706 36.1904 98.7243 36.1471C98.9796 36.102 99.1979 35.9778 99.3793 35.7745C99.5444 35.5893 99.6273 35.3923 99.628 35.1834C99.6286 34.9746 99.5773 34.7582 99.474 34.5343C99.3707 34.3105 99.2457 34.0835 99.0992 33.8534L98.5909 33.0425C98.269 32.5269 98.0851 32.0391 98.0394 31.579C97.9937 31.119 98.1384 30.7011 98.4736 30.3254C98.7521 30.0132 99.079 29.8165 99.4543 29.7354C99.8331 29.6542 100.223 29.6776 100.623 29.8057C101.027 29.9336 101.406 30.157 101.76 30.4758C102.118 30.7978 102.379 31.1485 102.542 31.5279C102.707 31.9054 102.772 32.2781 102.737 32.6459C102.704 33.0154 102.567 33.3448 102.325 33.6343L101.674 33.0488Z" fill="white"/>
<path d="M108.968 38.6703L102.927 43.0562L102.398 42.3214L108.44 37.9355L108.968 38.6703Z" fill="white"/>
<path d="M113.375 45.9346L108.465 50.4451L108.499 50.5259L115.139 50.1069L115.51 50.9817L107.579 51.3794L107.214 50.518L113.004 45.0598L113.375 45.9346Z" fill="white"/>
<path d="M110.18 59.6004L117.562 58.5649L118.184 63.0401L117.391 63.1514L116.894 59.5741L114.399 59.924L114.865 63.2695L114.072 63.3808L113.606 60.0352L111.098 60.3871L111.603 64.0224L110.81 64.1336L110.18 59.6004Z" fill="white"/>
<defs>
<filter id="filter0_b_1224_2514" x="-99.7" y="-99.7" width="336.4" height="336.4" filterUnits="userSpaceOnUse" color-interpolation-filters="sRGB">
<feFlood flood-opacity="0" result="BackgroundImageFix"/>
<feGaussianBlur in="BackgroundImageFix" stdDeviation="49.85"/>
<feComposite in2="SourceAlpha" operator="in" result="effect1_backgroundBlur_1224_2514"/>
<feBlend mode="normal" in="SourceGraphic" in2="effect1_backgroundBlur_1224_2514" result="shape"/>
</filter>
<clipPath id="clip0_1224_2514">
<rect width="23.7679" height="23.7679" fill="white" transform="translate(56.6039 38.2402)"/>
</clipPath>
</defs>
</svg>
