<svg width="17" height="16" viewBox="0 0 17 16" fill="none" xmlns="http://www.w3.org/2000/svg">
<path d="M15.1111 7.97784C15.1111 6.24931 14.4697 4.78301 13.1868 3.57895C11.9039 2.37488 10.3417 1.77285 8.5 1.77285V0C9.68056 0 10.7863 0.210526 11.8174 0.631579C12.8484 1.05263 13.7456 1.62142 14.509 2.33795C15.2725 3.05448 15.8785 3.89658 16.3271 4.86427C16.7757 5.83195 17 6.86981 17 7.97784H15.1111ZM11.3333 7.97784C11.3333 7.23915 11.0579 6.61126 10.5069 6.09418C9.95602 5.5771 9.28704 5.31856 8.5 5.31856V3.54571C9.80648 3.54571 10.9201 3.97784 11.841 4.8421C12.7618 5.70637 13.2222 6.75162 13.2222 7.97784H11.3333ZM16.0083 16C14.0407 16 12.0968 15.5974 10.1764 14.7922C8.25602 13.9871 6.5088 12.8458 4.93472 11.3684C3.36065 9.89104 2.14468 8.25115 1.28681 6.44875C0.428935 4.64635 0 2.82179 0 0.975069C0 0.709141 0.0944444 0.487535 0.283333 0.310249C0.472222 0.132964 0.708333 0.0443213 0.991667 0.0443213H4.81667C5.03704 0.0443213 5.2338 0.114497 5.40694 0.254848C5.58009 0.395199 5.68241 0.561403 5.71389 0.753463L6.32778 3.85596C6.35926 4.09234 6.35139 4.29178 6.30417 4.45429C6.25694 4.61681 6.17037 4.75716 6.04444 4.87535L3.75417 7.04709C4.06898 7.59372 4.44282 8.12188 4.87569 8.63158C5.30857 9.14127 5.78472 9.6325 6.30417 10.1053C6.79213 10.5632 7.3037 10.988 7.83889 11.3795C8.37407 11.771 8.94074 12.1293 9.53889 12.4543L11.7583 10.3712C11.9 10.2382 12.085 10.1385 12.3132 10.072C12.5414 10.0055 12.7657 9.98707 12.9861 10.0166L16.2444 10.6371C16.4648 10.6962 16.6458 10.8033 16.7875 10.9584C16.9292 11.1136 17 11.2872 17 11.4792V15.0693C17 15.3352 16.9056 15.5568 16.7167 15.7341C16.5278 15.9114 16.2917 16 16.0083 16Z" fill="#CB2028"/>
</svg>
