<svg width="22" height="22" viewBox="0 0 22 22" fill="none" xmlns="http://www.w3.org/2000/svg">
<g clip-path="url(#clip0_1240_1136)">
<path d="M10.6765 0C4.78007 0 0 4.92492 0 11C0 16.1586 3.44722 20.4873 8.09746 21.6762V14.3616H5.89597V11H8.09746V9.55152C8.09746 5.80756 9.74207 4.0722 13.3097 4.0722C13.9862 4.0722 15.1533 4.20904 15.6308 4.34544V7.39244C15.3788 7.36516 14.9411 7.35152 14.3974 7.35152C12.6469 7.35152 11.9705 8.03484 11.9705 9.81112V11H15.4578L14.8587 14.3616H11.9705V21.9195C17.257 21.2617 21.3534 16.6241 21.3534 11C21.3529 4.92492 16.5729 0 10.6765 0Z" fill="#CB2028"/>
</g>
<defs>
<clipPath id="clip0_1240_1136">
<rect width="21.3529" height="22" fill="white"/>
</clipPath>
</defs>
</svg>
