<svg width="468" height="129" viewBox="0 0 468 129" fill="none" xmlns="http://www.w3.org/2000/svg">
<path d="M28.409 93.8757C28.2465 92.1118 27.5237 90.7407 26.2405 89.7626C24.9736 88.7684 23.1625 88.2713 20.8073 88.2713C19.2479 88.2713 17.9485 88.4717 16.9089 88.8726C15.8694 89.2735 15.0897 89.8267 14.5699 90.5323C14.0502 91.2218 13.7822 92.0156 13.7659 92.9135C13.7334 93.6512 13.8796 94.3006 14.2045 94.8618C14.5456 95.4231 15.0329 95.9202 15.6663 96.3531C16.3161 96.7701 17.0957 97.1389 18.0053 97.4596C18.9149 97.7803 19.9383 98.0609 21.0753 98.3014L25.3634 99.2636C27.8323 99.7927 30.0089 100.498 31.8931 101.38C33.7935 102.262 35.3853 103.312 36.6685 104.531C37.968 105.75 38.9506 107.153 39.6166 108.74C40.2826 110.328 40.6237 112.108 40.6399 114.08C40.6237 117.191 39.8278 119.861 38.2522 122.09C36.6766 124.319 34.4107 126.027 31.4545 127.213C28.5145 128.4 24.9655 128.993 20.8073 128.993C16.6328 128.993 12.9944 128.376 9.89197 127.141C6.78956 125.906 4.37748 124.03 2.65573 121.513C0.933971 118.995 0.0487289 115.812 0 111.964H11.5488C11.6462 113.551 12.0767 114.874 12.8401 115.932C13.6035 116.991 14.6512 117.792 15.9831 118.338C17.3313 118.883 18.8906 119.155 20.6611 119.155C22.2854 119.155 23.666 118.939 24.803 118.506C25.9563 118.073 26.8415 117.472 27.4587 116.702C28.076 115.932 28.3927 115.05 28.409 114.056C28.3927 113.126 28.1003 112.332 27.5318 111.675C26.9633 111.001 26.0862 110.424 24.9005 109.943C23.731 109.446 22.2366 108.989 20.4174 108.572L15.2034 107.369C10.8828 106.391 7.47989 104.812 4.99471 102.631C2.50954 100.434 1.27507 97.4676 1.29132 93.7313C1.27507 90.6846 2.10347 88.0147 3.77649 85.7217C5.44952 83.4286 7.76414 81.6407 10.7204 80.3578C13.6766 79.075 17.047 78.4336 20.8316 78.4336C24.6974 78.4336 28.0516 79.083 30.8941 80.3819C33.7529 81.6647 35.9701 83.4687 37.5456 85.7938C39.1212 88.119 39.9252 90.8129 39.9577 93.8757H28.409Z" fill="#CB2028"/>
<path d="M46.731 79.1071H61.6665L74.336 109.606H74.9207L87.5902 79.1071H102.526V128.368H90.782V98.109H90.3678L78.3805 128.055H70.8762L58.8889 97.9406H58.4747V128.368H46.731V79.1071Z" fill="#CB2028"/>
<path d="M122.109 79.1071V128.368H110.048V79.1071H122.109Z" fill="#CB2028"/>
<path d="M129.68 128.368V79.1071H141.74V118.698H162.499V128.368H129.68Z" fill="#CB2028"/>
<path d="M168.742 128.368V79.1071H203.535V88.7764H180.803V98.8787H201.756V108.572H180.803V118.698H203.535V128.368H168.742Z" fill="#CB2028"/>
<mask id="path-2-inside-1_1341_97" fill="white">
<path d="M237.276 128.32H219.091V79.1064H237.252C242.265 79.1064 246.581 80.0917 250.2 82.0622C253.836 84.0166 256.639 86.8362 258.608 90.5208C260.578 94.1894 261.563 98.5789 261.563 103.689C261.563 108.816 260.578 113.221 258.608 116.906C256.655 120.591 253.86 123.418 250.225 125.389C246.589 127.343 242.273 128.32 237.276 128.32ZM230.983 118.18H236.82C239.575 118.18 241.905 117.715 243.811 116.786C245.732 115.841 247.182 114.311 248.159 112.196C249.152 110.065 249.648 107.23 249.648 103.689C249.648 100.149 249.152 97.3293 248.159 95.2307C247.166 93.116 245.7 91.5941 243.762 90.665C241.841 89.7198 239.47 89.2472 236.652 89.2472H230.983V118.18Z"/>
<path d="M268.506 128.32V79.1064H302.81V88.7666H280.397V98.8593H301.056V108.543H280.397V118.66H302.81V128.32H268.506Z"/>
<path d="M336.849 93.861C336.689 92.0988 335.977 90.729 334.711 89.7518C333.462 88.7586 331.677 88.2619 329.354 88.2619C327.817 88.2619 326.536 88.4622 325.511 88.8627C324.486 89.2632 323.717 89.8159 323.205 90.5208C322.692 91.2097 322.428 92.0027 322.412 92.8998C322.38 93.6367 322.524 94.2855 322.844 94.8462C323.181 95.4069 323.661 95.9036 324.286 96.3361C324.926 96.7526 325.695 97.1211 326.592 97.4415C327.489 97.7619 328.498 98.0422 329.619 98.2825L333.847 99.2438C336.281 99.7724 338.427 100.477 340.285 101.358C342.158 102.24 343.728 103.289 344.993 104.506C346.274 105.724 347.243 107.126 347.9 108.712C348.556 110.298 348.893 112.076 348.909 114.046C348.893 117.154 348.108 119.822 346.555 122.048C345.001 124.275 342.767 125.981 339.852 127.167C336.954 128.352 333.454 128.945 329.354 128.945C325.239 128.945 321.651 128.328 318.592 127.095C315.534 125.861 313.155 123.987 311.458 121.472C309.76 118.957 308.887 115.777 308.839 111.932H320.226C320.322 113.518 320.746 114.839 321.499 115.897C322.252 116.954 323.285 117.755 324.598 118.3C325.927 118.844 327.465 119.117 329.21 119.117C330.812 119.117 332.173 118.9 333.294 118.468C334.431 118.035 335.304 117.435 335.913 116.666C336.521 115.897 336.833 115.016 336.849 114.022C336.833 113.093 336.545 112.3 335.985 111.643C335.424 110.97 334.559 110.394 333.39 109.913C332.237 109.417 330.764 108.96 328.97 108.543L323.829 107.342C319.569 106.365 316.214 104.787 313.764 102.608C311.314 100.413 310.096 97.4495 310.112 93.7168C310.096 90.673 310.913 88.0056 312.563 85.7147C314.212 83.4239 316.494 81.6376 319.409 80.356C322.324 79.0744 325.647 78.4336 329.378 78.4336C333.19 78.4336 336.497 79.0824 339.3 80.38C342.118 81.6617 344.304 83.4639 345.858 85.7868C347.411 88.1098 348.204 90.8011 348.236 93.861H336.849Z"/>
<path d="M366.805 79.1064V128.32H354.914V79.1064H366.805Z"/>
<path d="M406.557 95.1826C406.284 94.1734 405.884 93.2843 405.355 92.5153C404.827 91.7303 404.178 91.0655 403.41 90.5208C402.641 89.9761 401.76 89.5676 400.767 89.2952C399.774 89.0069 398.685 88.8627 397.5 88.8627C395.114 88.8627 393.048 89.4394 391.302 90.5929C389.573 91.7463 388.235 93.4284 387.291 95.6392C386.346 97.834 385.873 100.501 385.873 103.641C385.873 106.797 386.33 109.489 387.243 111.715C388.155 113.942 389.477 115.64 391.206 116.81C392.936 117.979 395.034 118.564 397.5 118.564C399.678 118.564 401.52 118.212 403.025 117.507C404.547 116.786 405.7 115.769 406.485 114.455C407.269 113.141 407.662 111.595 407.662 109.817L409.872 110.081H397.908V101.406H419.12V107.919C419.12 112.324 418.183 116.097 416.31 119.237C414.452 122.377 411.89 124.788 408.623 126.47C405.371 128.152 401.632 128.993 397.404 128.993C392.712 128.993 388.588 127.976 385.032 125.941C381.477 123.907 378.707 121.007 376.721 117.242C374.735 113.462 373.742 108.976 373.742 103.785C373.742 99.7484 374.342 96.1679 375.544 93.044C376.745 89.904 378.418 87.2447 380.564 85.0659C382.726 82.8872 385.225 81.2371 388.059 80.1157C390.91 78.9943 393.977 78.4336 397.26 78.4336C400.111 78.4336 402.761 78.8421 405.211 79.6591C407.678 80.4762 409.856 81.6296 411.745 83.1195C413.651 84.6094 415.197 86.3796 416.382 88.4302C417.567 90.4807 418.304 92.7316 418.592 95.1826H406.557Z"/>
<path d="M468 79.1064V128.32H457.911L438.332 99.9166H438.02V128.32H426.129V79.1064H436.362L455.725 107.462H456.133V79.1064H468Z"/>
</mask>
<path d="M237.276 128.32H219.091V79.1064H237.252C242.265 79.1064 246.581 80.0917 250.2 82.0622C253.836 84.0166 256.639 86.8362 258.608 90.5208C260.578 94.1894 261.563 98.5789 261.563 103.689C261.563 108.816 260.578 113.221 258.608 116.906C256.655 120.591 253.86 123.418 250.225 125.389C246.589 127.343 242.273 128.32 237.276 128.32ZM230.983 118.18H236.82C239.575 118.18 241.905 117.715 243.811 116.786C245.732 115.841 247.182 114.311 248.159 112.196C249.152 110.065 249.648 107.23 249.648 103.689C249.648 100.149 249.152 97.3293 248.159 95.2307C247.166 93.116 245.7 91.5941 243.762 90.665C241.841 89.7198 239.47 89.2472 236.652 89.2472H230.983V118.18Z" stroke="#CB2028" stroke-width="6" mask="url(#path-2-inside-1_1341_97)"/>
<path d="M268.506 128.32V79.1064H302.81V88.7666H280.397V98.8593H301.056V108.543H280.397V118.66H302.81V128.32H268.506Z" stroke="#CB2028" stroke-width="6" mask="url(#path-2-inside-1_1341_97)"/>
<path d="M336.849 93.861C336.689 92.0988 335.977 90.729 334.711 89.7518C333.462 88.7586 331.677 88.2619 329.354 88.2619C327.817 88.2619 326.536 88.4622 325.511 88.8627C324.486 89.2632 323.717 89.8159 323.205 90.5208C322.692 91.2097 322.428 92.0027 322.412 92.8998C322.38 93.6367 322.524 94.2855 322.844 94.8462C323.181 95.4069 323.661 95.9036 324.286 96.3361C324.926 96.7526 325.695 97.1211 326.592 97.4415C327.489 97.7619 328.498 98.0422 329.619 98.2825L333.847 99.2438C336.281 99.7724 338.427 100.477 340.285 101.358C342.158 102.24 343.728 103.289 344.993 104.506C346.274 105.724 347.243 107.126 347.9 108.712C348.556 110.298 348.893 112.076 348.909 114.046C348.893 117.154 348.108 119.822 346.555 122.048C345.001 124.275 342.767 125.981 339.852 127.167C336.954 128.352 333.454 128.945 329.354 128.945C325.239 128.945 321.651 128.328 318.592 127.095C315.534 125.861 313.155 123.987 311.458 121.472C309.76 118.957 308.887 115.777 308.839 111.932H320.226C320.322 113.518 320.746 114.839 321.499 115.897C322.252 116.954 323.285 117.755 324.598 118.3C325.927 118.844 327.465 119.117 329.21 119.117C330.812 119.117 332.173 118.9 333.294 118.468C334.431 118.035 335.304 117.435 335.913 116.666C336.521 115.897 336.833 115.016 336.849 114.022C336.833 113.093 336.545 112.3 335.985 111.643C335.424 110.97 334.559 110.394 333.39 109.913C332.237 109.417 330.764 108.96 328.97 108.543L323.829 107.342C319.569 106.365 316.214 104.787 313.764 102.608C311.314 100.413 310.096 97.4495 310.112 93.7168C310.096 90.673 310.913 88.0056 312.563 85.7147C314.212 83.4239 316.494 81.6376 319.409 80.356C322.324 79.0744 325.647 78.4336 329.378 78.4336C333.19 78.4336 336.497 79.0824 339.3 80.38C342.118 81.6617 344.304 83.4639 345.858 85.7868C347.411 88.1098 348.204 90.8011 348.236 93.861H336.849Z" stroke="#CB2028" stroke-width="6" mask="url(#path-2-inside-1_1341_97)"/>
<path d="M366.805 79.1064V128.32H354.914V79.1064H366.805Z" stroke="#CB2028" stroke-width="6" mask="url(#path-2-inside-1_1341_97)"/>
<path d="M406.557 95.1826C406.284 94.1734 405.884 93.2843 405.355 92.5153C404.827 91.7303 404.178 91.0655 403.41 90.5208C402.641 89.9761 401.76 89.5676 400.767 89.2952C399.774 89.0069 398.685 88.8627 397.5 88.8627C395.114 88.8627 393.048 89.4394 391.302 90.5929C389.573 91.7463 388.235 93.4284 387.291 95.6392C386.346 97.834 385.873 100.501 385.873 103.641C385.873 106.797 386.33 109.489 387.243 111.715C388.155 113.942 389.477 115.64 391.206 116.81C392.936 117.979 395.034 118.564 397.5 118.564C399.678 118.564 401.52 118.212 403.025 117.507C404.547 116.786 405.7 115.769 406.485 114.455C407.269 113.141 407.662 111.595 407.662 109.817L409.872 110.081H397.908V101.406H419.12V107.919C419.12 112.324 418.183 116.097 416.31 119.237C414.452 122.377 411.89 124.788 408.623 126.47C405.371 128.152 401.632 128.993 397.404 128.993C392.712 128.993 388.588 127.976 385.032 125.941C381.477 123.907 378.707 121.007 376.721 117.242C374.735 113.462 373.742 108.976 373.742 103.785C373.742 99.7484 374.342 96.1679 375.544 93.044C376.745 89.904 378.418 87.2447 380.564 85.0659C382.726 82.8872 385.225 81.2371 388.059 80.1157C390.91 78.9943 393.977 78.4336 397.26 78.4336C400.111 78.4336 402.761 78.8421 405.211 79.6591C407.678 80.4762 409.856 81.6296 411.745 83.1195C413.651 84.6094 415.197 86.3796 416.382 88.4302C417.567 90.4807 418.304 92.7316 418.592 95.1826H406.557Z" stroke="#CB2028" stroke-width="6" mask="url(#path-2-inside-1_1341_97)"/>
<path d="M468 79.1064V128.32H457.911L438.332 99.9166H438.02V128.32H426.129V79.1064H436.362L455.725 107.462H456.133V79.1064H468Z" stroke="#CB2028" stroke-width="6" mask="url(#path-2-inside-1_1341_97)"/>
<path d="M49.573 11.1782L46.2378 14.5775V33.1136V51.6497L49.8937 55.3698L53.5496 59.0898H61.5669H69.5843L73.3043 55.4339L77.0244 51.778V33.1136V14.4492L73.625 11.114L70.2257 7.77881H61.5669H52.9082L49.573 11.1782ZM66.6339 18.1693C67.7243 19.2597 67.7243 47.609 66.6339 48.6994C66.1849 49.1483 64.0684 49.469 61.6311 49.469C59.1938 49.469 57.0772 49.1483 56.6283 48.6994C55.5379 47.609 55.5379 19.2597 56.6283 18.1693C57.6545 17.1431 65.6077 17.1431 66.6339 18.1693Z" fill="#CB2028"/>
<path d="M249.046 11.1782L245.711 14.5775V33.4985V52.4194L249.11 55.7546L252.51 59.0898H260.784H269.058L272.778 55.4339L276.498 51.778V33.4343V15.0906L272.778 11.4347L269.058 7.77881H260.72H252.381L249.046 11.1782ZM266.107 18.1693C267.133 19.1955 267.198 46.3904 266.235 48.2504C265.658 49.2766 264.824 49.469 261.233 49.469C258.667 49.469 256.55 49.1483 256.102 48.6994C255.011 47.609 255.011 19.2597 256.102 18.1693C257.128 17.1431 265.081 17.1431 266.107 18.1693Z" fill="#CB2028"/>
<path d="M288.171 11.1782L284.836 14.5775V33.4985V52.4194L288.235 55.7546L291.635 59.0898H299.909H308.182L311.903 55.4339L315.623 51.778V33.1778V14.5775L312.095 11.1782L308.567 7.77881H300.037H291.506L288.171 11.1782ZM305.232 18.1693C306.322 19.2597 306.322 47.609 305.232 48.6994C304.783 49.1483 302.667 49.469 300.229 49.469C297.792 49.469 295.675 49.1483 295.226 48.6994C294.136 47.609 294.136 19.2597 295.226 18.1693C296.253 17.1431 304.206 17.1431 305.232 18.1693Z" fill="#CB2028"/>
<path d="M322.675 33.4343V59.0898H334.797H346.855L350.19 55.5622L353.461 51.9704V33.2419V14.4492L350.062 11.114L346.663 7.77881H334.669H322.675V33.4343ZM343.071 18.1693C343.648 18.7465 343.84 23.0438 343.84 33.4343C343.84 43.8248 343.648 48.1221 343.071 48.6994C342.622 49.1483 340.313 49.469 337.298 49.469H332.295V33.4343V17.3996H337.298C340.313 17.3996 342.622 17.7203 343.071 18.1693Z" fill="#CB2028"/>
<path d="M5.83165 33.4405V57.1719H11.6041H17.3766V48.1924V39.213H22.8284H28.2802V48.1924V57.1719H33.732H39.1838V33.4405V9.70917H33.6038H27.9595V18.4962V27.3473L22.7002 27.5398L17.3766 27.7322V18.6886V9.70917H11.6041H5.83165V33.4405Z" fill="#CB2028"/>
<path d="M83.4383 33.4405V57.1719H97.8696H112.301V51.3994V45.6269H103.642H94.9833V27.668V9.70917H89.2108H83.4383V33.4405Z" fill="#CB2028"/>
<path d="M118.715 33.4405V57.1719H133.146H147.577V51.3994V45.6269H138.918H130.26V27.668V9.70917H124.487H118.715V33.4405Z" fill="#CB2028"/>
<path d="M145.716 11.1202C146.101 11.954 149.18 17.6624 152.451 23.8838L158.48 35.1081V46.14V57.1719H163.931H169.383V46.14V35.1723L175.092 24.5252C178.234 18.6886 181.249 12.9161 181.826 11.7616L182.917 9.70918H176.503H170.089L167.074 15.2251C165.471 18.2396 163.931 20.5486 163.739 20.2921C163.547 20.0997 162.2 17.7265 160.725 14.9686L158.095 10.0299L151.489 9.83745L144.946 9.64503L145.716 11.1202Z" fill="#CB2028"/>
<path d="M187.986 10.6071C187.986 11.0561 190.102 20.8052 192.732 32.2219C195.362 43.6386 197.671 53.9649 197.927 55.0553L198.376 57.1719H204.277H210.242L211.717 50.4373C212.551 46.7814 213.385 43.8951 213.641 44.0234C213.898 44.2158 214.475 46.14 214.86 48.3207C215.309 50.5656 215.95 53.4518 216.271 54.7346L216.912 57.1719H222.877H228.778L229.548 53.4518C229.933 51.4635 232.306 40.8806 234.743 30.0412C237.244 19.2017 239.297 10.1581 239.297 9.96572C239.297 9.77331 236.667 9.77331 233.396 9.83744L227.495 10.0299L225.25 20.1638C224.032 25.6797 222.813 30.0412 222.557 29.7846C222.3 29.4639 221.146 24.8459 219.991 19.4583L217.874 9.70917H213.577H209.28L207.548 17.2134C206.586 21.3824 205.432 26.1928 205.047 27.9887L204.277 31.1957L203.187 26.3853C202.545 23.7556 201.455 18.881 200.749 15.6099L199.403 9.70917H193.694C189.269 9.70917 187.986 9.90158 187.986 10.6071Z" fill="#CB2028"/>
<path d="M427.108 10.7084L422.495 21.4166H410.736C400.809 21.4166 399.045 21.4621 399.316 21.7355C399.497 21.895 403.59 24.629 408.43 27.7959C413.246 30.9628 417.181 33.5829 417.181 33.6057C417.181 33.6513 414.739 39.3471 411.754 46.2733C408.769 53.1994 406.349 58.8725 406.372 58.9181C406.417 58.9409 412.138 55.4322 419.103 51.1261C426.045 46.7973 431.879 43.3342 432.06 43.4026C432.219 43.4709 437.94 46.9568 444.724 51.1717C451.53 55.3866 457.184 58.8953 457.297 58.9636C457.41 59.032 457.455 58.9409 457.364 58.7586C457.297 58.5763 454.832 52.8577 451.892 46.0454C447.437 35.7929 446.578 33.6285 446.827 33.4007C447.008 33.2412 451.101 30.5072 455.962 27.3175L464.759 21.5305L453 21.4621L441.219 21.4166L436.606 10.7084C434.073 4.80748 431.925 0.000179291 431.857 0.000179291C431.789 0.000179291 429.663 4.80748 427.108 10.7084Z" fill="#CB2028"/>
</svg>
