<svg width="23" height="22" viewBox="0 0 23 22" fill="none" xmlns="http://www.w3.org/2000/svg">
<g clip-path="url(#clip0_1240_1134)">
<path d="M11.1209 1.98086C14.06 1.98086 14.408 1.99375 15.5639 2.04531C16.6381 2.09258 17.2182 2.27305 17.6049 2.42344C18.1162 2.62109 18.4857 2.86172 18.8682 3.24414C19.2549 3.63086 19.4912 3.99609 19.6889 4.50742C19.8392 4.89414 20.0197 5.47852 20.067 6.54844C20.1185 7.70859 20.1314 8.05664 20.1314 10.9914C20.1314 13.9305 20.1185 14.2785 20.067 15.4344C20.0197 16.5086 19.8392 17.0887 19.6889 17.4754C19.4912 17.9867 19.2506 18.3563 18.8682 18.7387C18.4814 19.1254 18.1162 19.3617 17.6049 19.5594C17.2182 19.7098 16.6338 19.8902 15.5639 19.9375C14.4037 19.9891 14.0557 20.002 11.1209 20.002C8.18183 20.002 7.83378 19.9891 6.67792 19.9375C5.6037 19.8902 5.02362 19.7098 4.6369 19.5594C4.12558 19.3617 3.75604 19.1211 3.37362 18.7387C2.9869 18.352 2.75058 17.9867 2.55292 17.4754C2.40253 17.0887 2.22206 16.5043 2.17479 15.4344C2.12323 14.2742 2.11034 13.9262 2.11034 10.9914C2.11034 8.05234 2.12323 7.7043 2.17479 6.54844C2.22206 5.47422 2.40253 4.89414 2.55292 4.50742C2.75058 3.99609 2.9912 3.62656 3.37362 3.24414C3.76034 2.85742 4.12558 2.62109 4.6369 2.42344C5.02362 2.27305 5.608 2.09258 6.67792 2.04531C7.83378 1.99375 8.18183 1.98086 11.1209 1.98086ZM11.1209 0C8.13456 0 7.76073 0.0128906 6.58768 0.0644531C5.41893 0.116016 4.61542 0.305078 3.91933 0.575781C3.19315 0.859375 2.5787 1.2332 1.96854 1.84766C1.35409 2.45781 0.980263 3.07227 0.696669 3.79414C0.425966 4.49453 0.236903 5.29375 0.185341 6.4625C0.133778 7.63984 0.120888 8.01367 0.120888 11C0.120888 13.9863 0.133778 14.3602 0.185341 15.5332C0.236903 16.702 0.425966 17.5055 0.696669 18.2016C0.980263 18.9277 1.35409 19.5422 1.96854 20.1523C2.5787 20.7625 3.19315 21.1406 3.91503 21.4199C4.61542 21.6906 5.41464 21.8797 6.58339 21.9312C7.75643 21.9828 8.13026 21.9957 11.1166 21.9957C14.1029 21.9957 14.4767 21.9828 15.6498 21.9312C16.8185 21.8797 17.6221 21.6906 18.3182 21.4199C19.04 21.1406 19.6545 20.7625 20.2646 20.1523C20.8748 19.5422 21.2529 18.9277 21.5322 18.2059C21.8029 17.5055 21.992 16.7063 22.0435 15.5375C22.0951 14.3645 22.108 13.9906 22.108 11.0043C22.108 8.01797 22.0951 7.64414 22.0435 6.47109C21.992 5.30234 21.8029 4.49883 21.5322 3.80273C21.2615 3.07227 20.8877 2.45781 20.2732 1.84766C19.6631 1.2375 19.0486 0.859375 18.3267 0.580078C17.6264 0.309375 16.8271 0.120313 15.6584 0.06875C14.481 0.0128906 14.1072 0 11.1209 0Z" fill="#CB2028"/>
<path d="M11.1209 5.35156C8.00135 5.35156 5.47049 7.88242 5.47049 11.002C5.47049 14.1215 8.00135 16.6523 11.1209 16.6523C14.2404 16.6523 16.7713 14.1215 16.7713 11.002C16.7713 7.88242 14.2404 5.35156 11.1209 5.35156ZM11.1209 14.6672C9.09705 14.6672 7.45565 13.0258 7.45565 11.002C7.45565 8.97813 9.09705 7.33672 11.1209 7.33672C13.1447 7.33672 14.7861 8.97813 14.7861 11.002C14.7861 13.0258 13.1447 14.6672 11.1209 14.6672Z" fill="#CB2028"/>
<path d="M18.3138 5.12774C18.3138 5.85821 17.7209 6.44688 16.9947 6.44688C16.2642 6.44688 15.6756 5.85391 15.6756 5.12774C15.6756 4.39727 16.2685 3.80859 16.9947 3.80859C17.7209 3.80859 18.3138 4.40156 18.3138 5.12774Z" fill="#CB2028"/>
</g>
<defs>
<clipPath id="clip0_1240_1134">
<rect width="22" height="22" fill="white" transform="translate(0.120888)"/>
</clipPath>
</defs>
</svg>
