<svg width="20" height="20" viewBox="0 0 20 20" fill="none" xmlns="http://www.w3.org/2000/svg">
<path d="M17.3333 9.94531C17.3333 7.83281 16.5976 6.0408 15.126 4.56927C13.6545 3.09774 11.8625 2.36198 9.75 2.36198V0.195312C11.1042 0.195312 12.3726 0.452604 13.5552 0.967188C14.7378 1.48177 15.767 2.17691 16.6427 3.0526C17.5184 3.9283 18.2135 4.95747 18.7281 6.1401C19.2427 7.32274 19.5 8.59115 19.5 9.94531H17.3333ZM13 9.94531C13 9.04254 12.684 8.27517 12.0521 7.64323C11.4201 7.01129 10.6528 6.69531 9.75 6.69531V4.52865C11.2486 4.52865 12.526 5.05677 13.5823 6.11302C14.6385 7.16927 15.1667 8.4467 15.1667 9.94531H13ZM18.3625 19.7495C16.1056 19.7495 13.8757 19.2575 11.6729 18.2734C9.47014 17.2894 7.46597 15.8946 5.66042 14.0891C3.85486 12.2835 2.46007 10.2793 1.47604 8.07656C0.492014 5.87379 0 3.64392 0 1.38698C0 1.06198 0.108333 0.791146 0.325 0.574479C0.541667 0.357813 0.8125 0.249479 1.1375 0.249479H5.525C5.77778 0.249479 6.00347 0.335243 6.20208 0.506771C6.40069 0.678299 6.51806 0.881424 6.55417 1.11615L7.25833 4.90781C7.29444 5.1967 7.28542 5.44045 7.23125 5.63906C7.17708 5.83767 7.07778 6.0092 6.93333 6.15365L4.30625 8.80781C4.66736 9.47587 5.09618 10.1214 5.59271 10.7443C6.08924 11.3672 6.63542 11.9675 7.23125 12.5453C7.79097 13.105 8.37778 13.6241 8.99167 14.1026C9.60556 14.5811 10.2556 15.0189 10.9417 15.4161L13.4875 12.8703C13.65 12.7078 13.8622 12.5859 14.124 12.5047C14.3858 12.4234 14.6431 12.4009 14.8958 12.437L18.6333 13.1953C18.8861 13.2675 19.0938 13.3984 19.2563 13.588C19.4188 13.7776 19.5 13.9898 19.5 14.2245V18.612C19.5 18.937 19.3917 19.2078 19.175 19.4245C18.9583 19.6411 18.6875 19.7495 18.3625 19.7495Z" fill="white"/>
</svg>
