<svg width="60" height="60" viewBox="0 0 60 60" fill="none" xmlns="http://www.w3.org/2000/svg">
<g clip-path="url(#clip0_1358_122)">
<path d="M46 0H14C6.26801 0 0 6.26801 0 14V46C0 53.732 6.26801 60 14 60H46C53.732 60 60 53.732 60 46V14C60 6.26801 53.732 0 46 0Z" fill="white"/>
<path d="M43 30C43 22.8203 37.1797 17 30 17C22.8203 17 17 22.8203 17 30C17 37.1797 22.8203 43 30 43C37.1797 43 43 37.1797 43 30Z" fill="white"/>
<path fill-rule="evenodd" clip-rule="evenodd" d="M46 30C46 39.3888 38.6127 47 29.5 47C20.3873 47 13 39.3888 13 30C13 20.6112 20.3873 13 29.5 13C38.6127 13 46 20.6112 46 30ZM30.0913 25.5501C28.4864 26.2379 25.2789 27.6614 20.4689 29.8205C19.6878 30.1406 19.2786 30.4536 19.2414 30.7598C19.1784 31.2771 19.8072 31.4808 20.6635 31.7583C20.78 31.796 20.9007 31.8351 21.0244 31.8765C21.8669 32.1587 23.0001 32.4888 23.5893 32.5019C24.1237 32.5138 24.7201 32.2868 25.3786 31.8209C29.8728 28.6953 32.1928 27.1154 32.3384 27.0813C32.4412 27.0573 32.5836 27.0271 32.6801 27.1154C32.7765 27.2038 32.767 27.3711 32.7568 27.416C32.6945 27.6896 30.2262 30.054 28.9488 31.2775C28.5506 31.659 28.2681 31.9295 28.2104 31.9913C28.081 32.1297 27.9492 32.2607 27.8225 32.3865C27.0398 33.1639 26.4529 33.7468 27.855 34.6988C28.5288 35.1563 29.0679 35.5346 29.6058 35.912C30.1932 36.3241 30.7791 36.7352 31.5372 37.2472C31.7304 37.3776 31.9148 37.5131 32.0945 37.6451C32.7781 38.1472 33.3923 38.5983 34.1511 38.5264C34.592 38.4846 35.0474 38.0574 35.2787 36.7835C35.8253 33.7728 36.8997 27.2495 37.148 24.5614C37.1698 24.3259 37.1424 24.0245 37.1205 23.8921C37.0985 23.7598 37.0526 23.5713 36.8856 23.4318C36.6879 23.2665 36.3827 23.2316 36.2463 23.2341C35.6257 23.2454 34.6735 23.5865 30.0913 25.5501Z" fill="#4EC9F5"/>
</g>
<defs>
<clipPath id="clip0_1358_122">
<rect width="60" height="60" fill="white"/>
</clipPath>
</defs>
</svg>
