<svg width="60" height="60" viewBox="0 0 60 60" fill="none" xmlns="http://www.w3.org/2000/svg">
<g clip-path="url(#clip0_1358_119)">
<path d="M46 0H14C6.26801 0 0 6.26801 0 14V46C0 53.732 6.26801 60 14 60H46C53.732 60 60 53.732 60 46V14C60 6.26801 53.732 0 46 0Z" fill="white"/>
<path d="M13 47L15.4013 38.2691C13.9195 35.7134 13.1409 32.8163 13.1423 29.8456C13.1466 20.5579 20.7406 13 30.0712 13C34.5991 13.0014 38.8494 14.7567 42.0465 17.9413C45.2421 21.126 47.0014 25.359 47 29.8612C46.9957 39.1502 39.4017 46.7082 30.0712 46.7082C27.2385 46.7068 24.4472 45.9998 21.9747 44.6568L13 47ZM22.3904 41.6068C24.776 43.0163 27.0535 43.8607 30.0655 43.8621C37.8203 43.8621 44.1375 37.5806 44.1418 29.8583C44.1446 22.1205 37.8573 15.8475 30.0769 15.8447C22.3163 15.8447 16.0034 22.1262 16.0006 29.847C15.9992 32.9991 16.9272 35.3592 18.4859 37.8285L17.0639 42.9965L22.3904 41.6068ZM38.5989 33.8661C38.4936 33.6904 38.2118 33.5856 37.7876 33.3745C37.3648 33.1634 35.2852 32.1448 34.8966 32.0046C34.5094 31.8643 34.2276 31.7935 33.9443 32.2157C33.6625 32.6364 32.8511 33.5856 32.6049 33.8661C32.3586 34.1466 32.1109 34.182 31.6882 33.9709C31.2654 33.7598 29.9018 33.3164 28.2862 31.8813C27.0293 30.765 26.1795 29.3866 25.9333 28.9644C25.687 28.5437 25.9076 28.3156 26.1183 28.1059C26.309 27.9175 26.5411 27.6143 26.7532 27.3678C26.9681 27.1242 27.0378 26.9485 27.1802 26.6666C27.3211 26.3861 27.2514 26.1396 27.1446 25.9285C27.0378 25.7188 26.1923 23.6462 25.8407 22.8033C25.4963 21.9831 25.1475 22.0936 24.8885 22.0808L24.0771 22.0667C23.7953 22.0667 23.3369 22.1715 22.9498 22.5937C22.5626 23.0158 21.4694 24.033 21.4694 26.1056C21.4694 28.1782 22.9853 30.1799 23.196 30.4604C23.4081 30.7409 26.1781 34.9937 30.4213 36.817C31.4305 37.2505 32.2191 37.5097 32.8326 37.7038C33.8461 38.024 34.7685 37.9787 35.4973 37.871C36.3101 37.7506 37.9997 36.8524 38.3527 35.8692C38.7057 34.8847 38.7057 34.0417 38.5989 33.8661Z" fill="#32D681"/>
</g>
<defs>
<clipPath id="clip0_1358_119">
<rect width="60" height="60" fill="white"/>
</clipPath>
</defs>
</svg>
