<svg width="40" height="40" viewBox="0 0 40 40" fill="none" xmlns="http://www.w3.org/2000/svg">
<g clip-path="url(#clip0_1249_975)">
<path d="M18.7909 3.76049C16.3714 3.9371 13.9696 4.68767 11.9563 5.89743C9.58091 7.31911 7.57642 9.36775 6.23421 11.7254C5.75738 12.582 5.01563 14.2951 4.91849 14.7896C4.86551 15.028 4.83902 15.0457 4.31803 15.081C2.86103 15.1693 1.21859 16.5468 0.565141 18.2422C0.141285 19.3284 0 20.1672 0 21.5536C0 23.3373 0.406195 24.9268 1.18326 26.2425C1.6601 27.0549 2.63144 27.9909 3.3467 28.3265C3.89418 28.5914 4.03546 28.6179 4.75072 28.609C5.2982 28.609 5.76621 28.5472 6.25187 28.4059C7.50578 28.0527 7.84133 27.7083 7.82367 26.7635C7.82367 26.4721 7.57642 24.6266 7.26736 22.6574C6.96713 20.6882 6.72871 18.825 6.72871 18.516C6.72871 18.2069 6.79052 17.6064 6.87 17.1914C7.88549 11.6636 12.1152 7.4339 17.6872 6.35661C18.9411 6.11819 21.2193 6.13585 22.4555 6.40076C25.4755 7.03654 27.8332 8.37875 29.8554 10.604C31.7097 12.6438 32.9195 15.3106 33.2109 18.0215C33.2815 18.6484 33.2462 19.0281 32.8753 21.4653L32.4603 24.2027L32.0188 25.1299C30.1644 29.0064 26.7294 31.6908 22.535 32.5474C21.8286 32.6887 21.3253 32.724 19.7005 32.724C18.5349 32.724 17.59 32.7681 17.3781 32.8211C16.9277 32.9447 16.4068 33.4657 16.2831 33.9161C16.1595 34.3576 16.1595 35.223 16.2743 35.6556C16.3891 36.053 16.7246 36.4769 17.1044 36.68C17.3428 36.8124 17.6872 36.8301 19.983 36.8301C22.2789 36.8301 22.6233 36.8124 22.8617 36.68C23.418 36.3797 23.7801 35.7439 23.7801 35.064C23.7801 34.8079 23.8066 34.7903 24.5042 34.596C26.1819 34.128 28.2129 33.086 29.7052 31.9116C30.5971 31.214 31.9481 29.8365 32.6369 28.9181L33.1491 28.2382L34.0056 28.4589C35.1182 28.7415 35.7982 28.7062 36.6194 28.3265C38.3678 27.5052 39.657 25.2447 39.9484 22.472C40.2486 19.6198 39.2155 16.8205 37.4406 15.6726C36.9196 15.3371 36.0101 15.0633 35.4008 15.0633C35.1271 15.0633 35.0917 15.0368 35.0388 14.7807C34.9328 14.3304 34.2352 12.635 33.8731 11.9904C32.3897 9.29711 30.1644 7.06303 27.4888 5.58837C25.0252 4.23732 21.7668 3.54856 18.7909 3.76049Z" fill="#CB2028"/>
<path d="M19.0817 8.62841C15.1257 8.89332 11.5583 11.3923 9.9953 14.9951C8.76789 17.8208 8.75906 21.141 9.98647 23.9579C10.3573 24.8232 11.311 26.3332 11.7525 26.7483L12.0086 26.9955L11.6642 28.5143C11.2757 30.2009 11.2669 30.6601 11.6024 31.0133C11.9821 31.4107 12.3177 31.3224 14.0308 30.3775L15.5584 29.5386L16.3355 29.8035C19.6292 30.925 23.285 30.457 26.1371 28.5496C28.486 26.9778 30.0843 24.6025 30.6759 21.7679C30.9144 20.6023 30.9409 18.6773 30.7289 17.4941C30.1196 14.1209 28.0622 11.3305 25.051 9.79402C23.2143 8.84917 21.3246 8.48713 19.0817 8.62841ZM14.9844 17.5735C15.5672 17.7501 15.9558 18.0769 16.2207 18.6155C16.5121 19.1983 16.5209 19.7281 16.2383 20.3374C15.7615 21.3618 14.5606 21.7679 13.5539 21.2558C11.9645 20.4346 12.1764 18.121 13.8895 17.5824C14.4016 17.4234 14.4899 17.4234 14.9844 17.5735ZM20.8213 17.6883C21.7838 18.174 22.243 19.3838 21.8015 20.2845C21.4747 20.9732 20.6712 21.5119 19.9824 21.5119C19.17 21.5119 18.3135 20.8408 18.0751 20.0372C17.607 18.4124 19.329 16.9466 20.8213 17.6883ZM26.04 17.5824C27.7796 18.1034 28.018 20.4257 26.4109 21.2558C25.4042 21.7679 24.2033 21.3618 23.7265 20.3374C23.4439 19.7281 23.4527 19.1983 23.7441 18.6155C24.009 18.0857 24.3976 17.7501 24.9451 17.5824C25.4396 17.4234 25.519 17.4234 26.04 17.5824Z" fill="#CB2028"/>
</g>
<defs>
<clipPath id="clip0_1249_975">
<rect width="40" height="40" fill="white"/>
</clipPath>
</defs>
</svg>
