<svg width="40" height="40" viewBox="0 0 40 40" fill="none" xmlns="http://www.w3.org/2000/svg">
<path d="M18.1247 5.08787C16.9374 5.30968 15.6652 5.85117 14.7323 6.54922C14.0865 7.02546 13.2449 7.91271 12.8796 8.50638L12.5925 8.96305L9.20009 8.98262C6.03602 9.00219 5.78811 9.00872 5.55977 9.12615C5.4293 9.19139 5.25315 9.34143 5.16834 9.45234C5.03134 9.64806 5.02482 9.70677 5.00524 11.5791C4.98567 13.732 4.99872 13.7972 5.44887 14.1039L5.66415 14.2539H19.6057H33.5472L33.769 14.1039C33.8929 14.0256 34.056 13.8299 34.1408 13.6668C34.2844 13.3797 34.2909 13.3406 34.2713 11.5465C34.2517 9.50453 34.2387 9.43929 33.7624 9.14572C33.5341 9.00219 33.5015 9.00219 30.1026 8.98262L26.671 8.96305L26.2861 8.39547C25.1248 6.6797 23.1938 5.45973 21.0605 5.08787C20.3755 4.97044 18.7837 4.97044 18.1247 5.08787Z" fill="#CB2028"/>
<path d="M7.08008 25.299C7.08008 33.8844 7.0866 34.2628 7.20403 34.4781C7.26927 34.602 7.41932 34.7717 7.53675 34.8565L7.75204 35H12.2992H16.8463L17.0616 34.85C17.5444 34.5238 17.5509 34.5042 17.5705 32.8406L17.59 31.3466H19.645H21.6935V32.7884C21.6935 34.4129 21.7262 34.5564 22.1437 34.8434L22.3785 35H26.9192H31.4598L31.6751 34.8565C31.7925 34.7717 31.9556 34.6216 32.0273 34.5238L32.1643 34.3411L32.1839 25.3382L32.197 16.3417H19.6385H7.08008V25.299ZM14.6804 19.0426C14.8957 19.2579 14.9218 19.4732 14.8957 20.928L14.8761 22.2132L14.6934 22.3894L14.5173 22.572L13.0298 22.5916C12.0774 22.6047 11.4641 22.5851 11.3075 22.5394C10.8965 22.422 10.8639 22.2915 10.8639 20.6866V19.2905L11.0335 19.0883L11.2032 18.886H12.8602H14.5238L14.6804 19.0426ZM21.4587 19.0883L21.6283 19.2905V20.6866C21.6283 22.2915 21.5957 22.422 21.1847 22.5394C21.0281 22.5851 20.4149 22.6047 19.4624 22.5916L17.9749 22.572L17.7988 22.3894L17.6161 22.2132L17.5966 20.928C17.5705 19.4732 17.5966 19.2579 17.8118 19.0426L17.9684 18.886H19.632H21.2891L21.4587 19.0883ZM28.1848 19.0491L28.3479 19.2057V20.6801C28.3479 21.613 28.3218 22.2067 28.2761 22.2915C28.1326 22.559 27.8521 22.6047 26.3581 22.6047C24.8641 22.6047 24.5836 22.559 24.4401 22.2915C24.3944 22.2067 24.3683 21.6195 24.3683 20.6932V19.2318L24.5379 19.0557L24.7141 18.886H26.3712H28.0282L28.1848 19.0491ZM14.5956 24.7641C14.8565 24.9011 14.9087 25.1946 14.9087 26.519C14.9087 28.4827 14.9674 28.4305 12.7624 28.3978C11.1836 28.3783 11.0792 28.3587 10.9357 28.039C10.89 27.9412 10.8639 27.341 10.8639 26.4864V25.0968L11.0335 24.8945L11.2032 24.6923H12.8341C13.8714 24.6923 14.5108 24.7184 14.5956 24.7641ZM21.4587 24.8945L21.6283 25.0968V26.4864C21.6283 27.9412 21.6022 28.1173 21.3478 28.2869C21.1651 28.4044 18.4642 28.4631 18.0989 28.3522C17.6357 28.2152 17.6161 28.1565 17.5966 26.7277C17.5705 25.2794 17.5966 25.0642 17.8118 24.8489L17.9684 24.6923H19.632H21.2891L21.4587 24.8945ZM28.1848 24.8554L28.3479 25.012V26.4864C28.3479 27.4193 28.3218 28.0129 28.2761 28.0977C28.1326 28.3652 27.8521 28.4109 26.3581 28.4109C24.8641 28.4109 24.5836 28.3652 24.4401 28.0977C24.3944 28.0129 24.3683 27.4258 24.3683 26.4994C24.3683 25.0381 24.3683 25.0381 24.5314 24.8619L24.688 24.6923H26.3581H28.0282L28.1848 24.8554Z" fill="#CB2028"/>
</svg>
