<svg width="40" height="40" viewBox="0 0 40 40" fill="none" xmlns="http://www.w3.org/2000/svg">
<g clip-path="url(#clip0_1249_999)">
<path d="M14.6639 0.143838C14.1562 0.487494 14.1484 0.542167 14.1484 2.7525V4.76758H17.6709H21.1934L20.9591 4.47078C20.8263 4.31458 19.7875 3.25237 18.6472 2.11205L16.5697 0.0423031L15.7261 0.0188718C15.0076 0.00325108 14.8592 0.0188718 14.6639 0.143838Z" fill="#CB2028"/>
<path d="M0.523297 2.5552C0.0078125 2.90667 0.0078125 2.91448 0.0078125 5.4919C0.0078125 8.09275 0.039054 8.3505 0.531107 9.31898C0.906005 10.0688 1.72609 10.8889 2.47589 11.2638C3.5381 11.7949 3.41314 11.7871 9.06003 11.7871H14.1446V13.7475C14.1446 15.5673 14.1524 15.7313 14.3008 15.9656C14.5663 16.3952 14.8553 16.4967 15.7691 16.4655L16.5658 16.4342L18.8933 14.1067L21.213 11.7871H26.6099H32.0069L32.2725 11.6074C32.5927 11.3965 32.8114 10.9904 32.8114 10.6077C32.8114 10.4437 32.6864 10.0688 32.499 9.67826C31.9366 8.52232 30.7494 7.54603 29.4842 7.21799C29.0858 7.11646 27.5316 7.10084 16.8782 7.10084H4.73309L3.67869 4.99204C3.0851 3.80486 2.53056 2.7817 2.4056 2.66455C2.20253 2.46929 2.12442 2.45366 1.46835 2.43023C0.859143 2.41461 0.718556 2.43023 0.523297 2.5552Z" fill="#CB2028"/>
<path d="M2.77405 14.3572C2.42258 14.6228 0.329403 16.7316 0.134144 17.0206C-0.0454948 17.2939 -0.029874 18.0125 0.157575 18.3015C0.399696 18.6686 0.696491 18.817 1.19635 18.817C1.57906 18.817 1.6806 18.7857 1.99301 18.5436L2.35229 18.2702V23.058C2.35229 27.6036 2.3601 27.8848 2.5085 28.4628C2.92245 30.0717 4.00028 31.4307 5.47644 32.2039C6.34339 32.6569 6.90574 32.8053 7.90547 32.8522L8.81928 32.8991L8.55373 33.2427C8.32723 33.5473 8.28817 33.6489 8.28817 34.0316C8.28817 34.797 8.70993 35.2188 9.46754 35.2188C9.82682 35.2188 9.95959 35.1797 10.2095 34.9922C10.561 34.7267 12.6542 32.6179 12.8494 32.3289C12.9275 32.2118 12.9744 31.9774 12.9744 31.6963C12.9744 31.337 12.9353 31.2042 12.7479 30.9543C12.4823 30.6028 10.3735 28.5096 10.0846 28.3144C9.8112 28.1347 9.09264 28.1504 8.80366 28.3378C8.43657 28.5799 8.28817 28.8767 8.28817 29.3766C8.28817 29.7593 8.31942 29.8608 8.56154 30.1732C8.81928 30.5169 8.82709 30.5325 8.65526 30.5325C6.59332 30.5013 5.01563 29.2282 4.77351 27.3928C4.73445 27.0803 4.6954 24.9012 4.6954 22.5503V18.2702L5.05468 18.5436C5.36709 18.7857 5.46863 18.817 5.85134 18.817C6.61675 18.817 7.03851 18.3952 7.03851 17.6376C7.03851 17.2783 6.99946 17.1455 6.81201 16.8956C6.54646 16.5441 4.43766 14.451 4.14868 14.2557C4.03152 14.1776 3.79721 14.1307 3.51604 14.1307C3.15676 14.1307 3.02398 14.1698 2.77405 14.3572Z" fill="#CB2028"/>
<path d="M24.0408 14.276C23.6971 14.5025 23.5878 14.7134 23.3613 15.6194L23.1426 16.4707H27.0712H30.9998L30.7811 15.6194C30.5546 14.7134 30.4453 14.5025 30.1016 14.276C29.8986 14.1354 29.672 14.1276 27.0712 14.1276C24.4703 14.1276 24.2438 14.1354 24.0408 14.276Z" fill="#CB2028"/>
<path d="M19.686 18.9648C18.3817 19.3787 17.5069 20.4878 17.2648 22.0421C17.2101 22.3467 17.1476 22.6278 17.1242 22.6591C17.1008 22.6903 16.8352 22.6278 16.5462 22.5263C15.8667 22.2764 15.0076 22.2607 14.6639 22.4794C14.3046 22.7216 14.1484 23.0262 14.1484 23.4948C14.1484 24.2133 14.5155 24.6039 15.2888 24.7132C15.9058 24.7913 16.4134 25.2287 16.4134 25.6661V25.8457H27.0746H37.7358V25.6661C37.7358 25.2287 38.2434 24.7913 38.8605 24.7132C39.6259 24.6117 40.0008 24.2133 40.0008 23.487C40.0008 23.0262 39.8446 22.7137 39.4853 22.4794C39.1494 22.2607 38.2825 22.2764 37.6108 22.5185C37.3218 22.6278 37.0563 22.6981 37.025 22.6825C36.9938 22.6591 36.9469 22.4404 36.9157 22.1983C36.7204 20.5971 35.791 19.3787 34.4788 18.9726C33.9868 18.8242 33.7681 18.8164 27.0434 18.8242C20.6154 18.8242 20.0921 18.832 19.686 18.9648Z" fill="#CB2028"/>
<path d="M17.6673 28.3495C16.7379 28.6854 16.0506 29.3102 15.6054 30.2162L15.3555 30.7317L15.332 33.0123L15.3086 35.3008H27.071H38.8334L38.81 33.0123L38.7866 30.7317L38.521 30.185C38.1696 29.4664 37.5525 28.8494 36.834 28.4979L36.2873 28.2324L27.1882 28.2168C18.3624 28.2012 18.0735 28.2012 17.6673 28.3495Z" fill="#CB2028"/>
<path d="M15.3164 38.4399C15.3164 39.3224 15.4023 39.5489 15.8319 39.8379C16.0428 39.9785 16.2458 39.9863 18.8311 39.9863C21.4163 39.9863 21.6194 39.9785 21.8303 39.8379C22.2598 39.5489 22.3457 39.3224 22.3457 38.4399V37.6432H18.8311H15.3164V38.4399Z" fill="#CB2028"/>
<path d="M31.7988 38.4399C31.7988 39.3224 31.8847 39.5489 32.3143 39.8379C32.5252 39.9785 32.7283 39.9863 35.3135 39.9863C37.8987 39.9863 38.1018 39.9785 38.3127 39.8379C38.7422 39.5489 38.8282 39.3224 38.8282 38.4399V37.6432H35.3135H31.7988V38.4399Z" fill="#CB2028"/>
</g>
<defs>
<clipPath id="clip0_1249_999">
<rect width="40" height="40" fill="white"/>
</clipPath>
</defs>
</svg>
