<svg width="40" height="40" viewBox="0 0 40 40" fill="none" xmlns="http://www.w3.org/2000/svg">
<path d="M12.0368 0.178139C11.8608 0.34778 11.8516 0.472778 11.8516 4.82093V9.28516H12.7683H13.6849L13.5461 8.67802C13.4627 8.31196 13.4257 7.72268 13.4442 7.14233C13.472 6.31198 13.4998 6.14234 13.759 5.62449C13.9164 5.30307 14.222 4.85665 14.435 4.62451C14.9535 4.06201 16.0554 3.3656 16.8054 3.12453C17.8517 2.78525 18.4721 2.93703 19.8425 3.86559C19.9629 3.94594 20.037 3.94594 20.1666 3.86559C21.574 2.91024 22.1944 2.76739 23.287 3.16917C24.1297 3.47274 24.9908 4.01737 25.5093 4.57094L25.926 5.01736L26.3427 4.57094C26.8612 4.01737 27.7223 3.47274 28.565 3.16917C29.6576 2.76739 30.278 2.91024 31.6947 3.86559C31.815 3.94594 31.8891 3.94594 32.0187 3.86559C33.3799 2.93703 34.0003 2.78525 35.0466 3.12453C35.7966 3.3656 36.8985 4.06201 37.417 4.62451C37.63 4.85665 37.9356 5.30307 38.093 5.62449C38.343 6.13341 38.38 6.31198 38.4078 7.09769C38.4263 7.61554 38.38 8.26731 38.3059 8.63338L38.1763 9.28516H39.093H40.0004V4.82093C40.0004 0.472778 39.9912 0.34778 39.8152 0.178139C39.6301 -0.00042963 39.5097 -0.00042963 25.926 -0.00042963C12.3423 -0.00042963 12.2219 -0.00042963 12.0368 0.178139Z" fill="#CB2028"/>
<path d="M16.7875 4.55308C16.0468 4.88343 15.3153 5.54414 15.0375 6.11556C14.769 6.66019 14.7412 7.71375 14.9634 8.66909L15.1116 9.28516H20.0006H24.8896L25.0378 8.66909C25.2137 7.92803 25.2322 6.81198 25.0748 6.31198C24.9081 5.76735 24.0933 4.97272 23.3155 4.59772C22.3062 4.11558 22.0469 4.16023 20.7969 5.07986C20.4636 5.32093 20.158 5.47271 20.0006 5.47271C19.8432 5.47271 19.5376 5.32093 19.2043 5.07986C17.982 4.17808 17.7135 4.12451 16.7875 4.55308Z" fill="#CB2028"/>
<path d="M28.6411 4.55308C27.9003 4.88343 27.1688 5.54414 26.891 6.11556C26.6225 6.66019 26.5947 7.71375 26.8169 8.66909L26.9651 9.28516H31.8541H36.7431L36.8913 8.66909C37.0672 7.92803 37.0857 6.81198 36.9283 6.31198C36.7616 5.76735 35.9468 4.97272 35.169 4.59772C34.1597 4.11558 33.9005 4.16023 32.6504 5.07986C32.3171 5.32093 32.0115 5.47271 31.8541 5.47271C31.6967 5.47271 31.3911 5.32093 31.0578 5.07986C29.8355 4.17808 29.567 4.12451 28.6411 4.55308Z" fill="#CB2028"/>
<path d="M11.8516 17.0715V23.4375L12.6942 22.0357C13.5738 20.5536 14.0646 19.9911 14.7776 19.634C15.1016 19.4643 15.185 19.384 15.1479 19.2411C15.0276 18.7322 14.9165 17.4554 14.8609 15.893C14.7961 14.0001 14.6479 12.7591 14.3238 11.5359L14.1109 10.7591L12.9812 10.7323L11.8516 10.7055V17.0715Z" fill="#CB2028"/>
<path d="M15.6019 10.9524C15.9723 12.3185 16.1205 13.3899 16.2038 15.2649C16.3056 17.4613 16.4445 19.0148 16.5557 19.113C16.5927 19.1487 16.8149 19.2023 17.0464 19.238L17.4723 19.3005L17.5835 18.872C17.6483 18.6309 17.7409 17.8363 17.7872 17.1041C17.9075 15.2738 18.0835 14.7202 18.7224 14.131C19.1113 13.7738 19.4261 13.6577 20.0094 13.6577C20.5835 13.6577 20.9817 13.8185 21.3613 14.2024C21.8428 14.6934 22.0465 15.2649 22.1484 16.372C22.3058 18.3452 22.3984 18.9077 22.6114 19.4255C22.8984 20.1309 23.1114 20.1398 23.3521 19.4791C23.5651 18.8987 23.6762 17.8095 23.7966 15.2202C23.8799 13.3899 24.0373 12.2917 24.3984 10.9524L24.4633 10.7114H20.0002H15.5371L15.6019 10.9524Z" fill="#CB2028"/>
<path d="M27.4554 10.9524C27.8166 12.2917 27.974 13.3899 28.0573 15.2202C28.1777 17.8095 28.2888 18.8987 28.5018 19.4791C28.7425 20.1398 28.9555 20.1309 29.2425 19.4255C29.4555 18.9077 29.5481 18.3452 29.7055 16.372C29.8074 15.2649 30.0111 14.6934 30.4926 14.2024C30.8722 13.8185 31.2704 13.6577 31.8537 13.6577C32.4371 13.6577 32.8352 13.8185 33.2148 14.2024C33.6963 14.6934 33.9001 15.2649 34.0019 16.372C34.1593 18.3452 34.2519 18.9077 34.4649 19.4255C34.7519 20.1309 34.9649 20.1398 35.2056 19.4791C35.4186 18.8987 35.5297 17.8095 35.6501 15.2202C35.7334 13.3899 35.8908 12.2917 36.252 10.9524L36.3168 10.7114H31.8537H27.3906L27.4554 10.9524Z" fill="#CB2028"/>
<path d="M37.7499 10.7764C37.6481 10.9461 37.3055 12.446 37.1851 13.2585C37.111 13.7496 37.0184 14.9549 36.9906 15.9371C36.8517 19.9816 36.3054 21.3388 34.7869 21.3388C33.5831 21.3388 32.8516 19.9191 32.685 17.2138C32.5739 15.4371 32.4072 14.9996 31.8516 14.9996C31.296 14.9996 31.1294 15.4371 31.0183 17.2138C30.8423 19.9727 30.1293 21.3388 28.8515 21.3388C28.2404 21.3388 27.8145 21.0709 27.4719 20.4638C26.9996 19.6156 26.8515 18.8209 26.7496 16.4281C26.7033 15.2228 26.6015 13.821 26.5274 13.3121C26.3792 12.2764 26.0274 10.8032 25.9255 10.8032C25.8329 10.8032 25.4811 12.2318 25.3329 13.2585C25.2588 13.7496 25.1663 14.9549 25.1385 15.9371C24.9996 19.9816 24.4533 21.3388 22.9347 21.3388C21.731 21.3388 20.9995 19.9191 20.8328 17.2138C20.7217 15.4371 20.555 14.9996 19.9995 14.9996C19.4439 14.9996 19.2865 15.4281 19.1661 17.2138C19.1105 18.0799 19.0087 18.8567 18.8883 19.2584L18.7031 19.9013L19.1568 20.312C20.0272 21.0977 20.4902 22.3388 20.2958 23.3655C20.2402 23.6512 20.1661 23.9727 20.1291 24.0798L20.0735 24.2852H29.8516C39.5092 24.2852 39.6296 24.2852 39.8148 24.1066C40 23.928 40 23.8119 40 17.321V10.7139H38.8981C38.287 10.7139 37.7684 10.7407 37.7499 10.7764Z" fill="#CB2028"/>
<path d="M15.7134 20.661C15.5282 20.7324 15.2319 20.8842 15.0652 21.0003C14.7226 21.2592 14.8059 21.1342 10.8429 27.7234C7.73168 32.9108 7.75946 32.8751 7.18537 32.7322C6.81499 32.643 6.69462 32.268 6.63906 30.9823C6.5835 29.8484 6.41683 28.8127 6.13905 27.768C5.88904 26.7948 6.02793 26.5805 7.04648 26.4198C8.28725 26.2234 9.40765 25.5895 10.0373 24.7145L10.3706 24.2413V22.5627C10.3706 21.6431 10.3429 20.8931 10.3058 20.8931C10.2595 20.8931 9.17616 21.152 7.87983 21.4735L5.52792 22.036L2.75933 24.7056L0 27.3662V33.6787V40H6.5372H13.0652L13.3892 39.3304C13.9818 38.0982 14.5004 36.0804 14.8615 33.5715C15.2782 30.7233 16.3523 27.893 18.1949 24.777C18.519 24.2324 18.8246 23.6163 18.8894 23.3931C19.1301 22.536 18.732 21.5628 17.9264 21.0271C17.1764 20.5271 16.4541 20.411 15.7134 20.661Z" fill="#CB2028"/>
<path d="M9.21478 27.1074C9.01107 27.2235 8.57588 27.402 8.24253 27.5092C7.90919 27.6163 7.63141 27.7145 7.61289 27.7235C7.58511 27.7502 7.93697 29.7413 7.98327 29.777C8.02031 29.8127 9.72405 27.0181 9.72405 26.9288C9.72405 26.8395 9.59442 26.8842 9.21478 27.1074Z" fill="#CB2028"/>
</svg>
