<svg width="70" height="70" viewBox="0 0 70 70" fill="none" xmlns="http://www.w3.org/2000/svg">
<g filter="url(#filter0_b_1224_2822)">
<rect width="70" height="70" rx="16" fill="#FAFAFA"/>
</g>
<g clip-path="url(#clip0_1224_2822)">
<path d="M54.863 41.9561C54.7953 41.8286 53.168 38.834 50 38.834C48.4254 38.834 47.4047 39.4464 46.5845 39.9385C45.867 40.369 45.3003 40.709 44.375 40.709C43.8021 40.709 43.3132 41.1231 43.2191 41.6882L42.3801 46.7222C42.2481 47.5142 41.4279 48.209 40.625 48.209H29.375C28.5721 48.209 27.752 47.5142 27.6199 46.7223L26.7809 41.6882C26.6867 41.1231 26.1978 40.709 25.625 40.709C24.2536 40.709 22.7827 38.834 19.9999 38.834C17.7194 38.834 15.5951 40.8102 15.3603 41.0355C15.1302 41.2565 15 41.5618 15 41.8809V53.8215C15 54.4687 15.5247 54.9934 16.1719 54.9934H53.8281C54.4753 54.9934 55 54.4687 55 53.8215V42.5059C55 42.3141 54.953 42.1254 54.863 41.9561ZM52.6562 52.6496H17.3438V42.4142C17.9657 41.9149 19.0814 41.1777 19.9999 41.1777C21.8009 41.1777 22.8882 42.4941 24.6111 42.9258L25.308 47.1075C25.63 49.0394 27.4164 50.5527 29.375 50.5527H40.625C42.5835 50.5527 44.3699 49.0394 44.692 47.1074L45.3827 42.9634C46.4108 42.7759 47.1599 42.3264 47.7905 41.948C48.508 41.5176 49.0747 41.1776 50 41.1776C51.382 41.1776 52.3205 42.3438 52.6562 42.8382V52.6496Z" fill="#CB2028"/>
<path d="M25.9616 33.0527H28.9837L29.2738 35.084H28.75C28.1028 35.084 27.5781 35.6087 27.5781 36.2559C27.5781 36.903 28.1028 37.4277 28.75 37.4277H29.6087L29.8988 39.459H29.375C28.7278 39.459 28.2031 39.9837 28.2031 40.6309C28.2031 41.278 28.7278 41.8027 29.375 41.8027H30.2337L30.7149 45.1716C30.7974 45.7489 31.2919 46.1777 31.8751 46.1777H38.1251C38.7083 46.1777 39.2027 45.7489 39.2852 45.1716L39.7665 41.8027H40.625C41.2722 41.8027 41.7969 41.278 41.7969 40.6309C41.7969 39.9837 41.2722 39.459 40.625 39.459H40.1012L40.3914 37.4277H41.25C41.8972 37.4277 42.4219 36.903 42.4219 36.2559C42.4219 35.6087 41.8972 35.084 41.25 35.084H40.7262L41.0164 33.0527H44.0384C44.4955 33.0527 44.9108 32.787 45.1023 32.3721C46.5548 29.2263 47.4219 25.5087 47.4219 22.4277C47.4219 18.4365 44.8582 15.0059 40.625 15.0059C37.922 15.0059 36.5337 16.2559 35 16.2559C33.4643 16.2559 32.0825 15.0059 29.375 15.0059C27.2688 15.0059 25.4935 15.8333 24.2412 17.3988C23.1688 18.7394 22.5781 20.5253 22.5781 22.4277C22.5781 25.5087 23.4452 29.2263 24.8977 32.3721C25.0893 32.787 25.5046 33.0527 25.9616 33.0527ZM37.1086 43.834H32.8913L32.6012 41.8027H37.3988L37.1086 43.834ZM37.7336 39.459H32.2663L31.9762 37.4277H38.0238L37.7336 39.459ZM38.3586 35.084H31.6413L31.3512 33.0527H38.6488L38.3586 35.084ZM29.375 17.3496C31.6031 17.3496 32.8444 18.5996 35 18.5996C37.1634 18.5996 38.3821 17.3496 40.625 17.3496C43.7012 17.3496 45.0781 19.9001 45.0781 22.4277C45.0781 24.9698 44.4104 28.0141 43.2748 30.709H26.7252C25.5896 28.0141 24.9219 24.9698 24.9219 22.4277C24.9219 19.9001 26.2988 17.3496 29.375 17.3496Z" fill="#CB2028"/>
</g>
<defs>
<filter id="filter0_b_1224_2822" x="-40" y="-40" width="150" height="150" filterUnits="userSpaceOnUse" color-interpolation-filters="sRGB">
<feFlood flood-opacity="0" result="BackgroundImageFix"/>
<feGaussianBlur in="BackgroundImageFix" stdDeviation="20"/>
<feComposite in2="SourceAlpha" operator="in" result="effect1_backgroundBlur_1224_2822"/>
<feBlend mode="normal" in="SourceGraphic" in2="effect1_backgroundBlur_1224_2822" result="shape"/>
</filter>
<clipPath id="clip0_1224_2822">
<rect width="40" height="40" fill="white" transform="translate(15 15)"/>
</clipPath>
</defs>
</svg>
