<svg width="20" height="20" viewBox="0 0 20 20" fill="none" xmlns="http://www.w3.org/2000/svg">
<path d="M8.74983 0.0592337C7.95826 0.207108 7.11016 0.568095 6.48822 1.03346C6.05764 1.35096 5.49659 1.94246 5.25303 2.33824L5.06167 2.64268L2.80006 2.65573C0.690677 2.66878 0.525405 2.67313 0.373182 2.75142C0.286197 2.79491 0.168767 2.89494 0.112227 2.96888C0.020893 3.09936 0.0165438 3.1385 0.00349603 4.38673C-0.0095517 5.82198 -0.000853211 5.86547 0.299245 6.06989L0.44277 6.16992H9.7371H19.0314L19.1793 6.06989C19.2619 6.0177 19.3707 5.88722 19.4272 5.77849C19.5229 5.58712 19.5273 5.56103 19.5142 4.36499C19.5012 3.00367 19.4925 2.96018 19.175 2.76446C19.0227 2.66878 19.001 2.66878 16.735 2.65573L14.4473 2.64268L14.1907 2.2643C13.4166 1.12045 12.1292 0.30714 10.707 0.0592337C10.2503 -0.019053 9.1891 -0.019053 8.74983 0.0592337Z" fill="#CB2028"/>
<path d="M1.38666 13.5327C1.38666 19.2563 1.39101 19.5085 1.46929 19.6521C1.51279 19.7347 1.61282 19.8478 1.6911 19.9043L1.83463 20H4.86605H7.89748L8.041 19.9C8.36285 19.6825 8.36719 19.6695 8.38024 18.5604L8.39329 17.5644H9.7633H11.129V18.5256C11.129 19.6086 11.1507 19.7043 11.4291 19.8956L11.5856 20H14.6127H17.6398L17.7833 19.9043C17.8616 19.8478 17.9703 19.7477 18.0182 19.6825L18.1095 19.5607L18.1225 13.5588L18.1312 7.56116H9.75895H1.38666V13.5327ZM6.45353 9.36175C6.59705 9.50527 6.61445 9.6488 6.59705 10.6187L6.584 11.4755L6.46223 11.5929L6.3448 11.7147L5.35317 11.7277C4.71818 11.7364 4.30935 11.7234 4.20497 11.6929C3.93097 11.6147 3.90922 11.5277 3.90922 10.4578V9.52702L4.0223 9.39219L4.13538 9.25737H5.24009H6.34915L6.45353 9.36175ZM10.9724 9.39219L11.0855 9.52702V10.4578C11.0855 11.5277 11.0637 11.6147 10.7897 11.6929C10.6853 11.7234 10.2765 11.7364 9.64152 11.7277L8.6499 11.7147L8.53247 11.5929L8.41069 11.4755L8.39764 10.6187C8.38024 9.6488 8.39764 9.50527 8.54116 9.36175L8.64555 9.25737H9.7546H10.8593L10.9724 9.39219ZM15.4565 9.3661L15.5652 9.47048V10.4534C15.5652 11.0754 15.5478 11.4711 15.5174 11.5277C15.4217 11.706 15.2347 11.7364 14.2387 11.7364C13.2427 11.7364 13.0557 11.706 12.96 11.5277C12.9296 11.4711 12.9122 11.0797 12.9122 10.4621V9.48788L13.0252 9.37045L13.1427 9.25737H14.2474H15.3521L15.4565 9.3661ZM6.39699 13.176C6.57096 13.2674 6.60575 13.4631 6.60575 14.346C6.60575 15.6551 6.64489 15.6203 5.17485 15.5986C4.12233 15.5855 4.05274 15.5725 3.95706 15.3594C3.92662 15.2941 3.90922 14.894 3.90922 14.3242V13.3978L4.0223 13.263L4.13538 13.1282H5.22269C5.91422 13.1282 6.34045 13.1456 6.39699 13.176ZM10.9724 13.263L11.0855 13.3978V14.3242C11.0855 15.2941 11.0681 15.4115 10.8985 15.5246C10.7767 15.6029 8.97609 15.6421 8.73253 15.5681C8.42374 15.4768 8.41069 15.4376 8.39764 14.4852C8.38024 13.5196 8.39764 13.3761 8.54116 13.2326L8.64555 13.1282H9.7546H10.8593L10.9724 13.263ZM15.4565 13.2369L15.5652 13.3413V14.3242C15.5652 14.9462 15.5478 15.342 15.5174 15.3985C15.4217 15.5768 15.2347 15.6073 14.2387 15.6073C13.2427 15.6073 13.0557 15.5768 12.96 15.3985C12.9296 15.342 12.9122 14.9505 12.9122 14.3329C12.9122 13.3587 12.9122 13.3587 13.0209 13.2413L13.1253 13.1282H14.2387H15.3521L15.4565 13.2369Z" fill="#CB2028"/>
</svg>
