<svg width="21" height="20" viewBox="0 0 21 20" fill="none" xmlns="http://www.w3.org/2000/svg">
<path d="M7.85535 0.0657921C7.60138 0.237713 7.59747 0.265064 7.59747 1.37083V2.37891H9.35966H11.1218L11.0046 2.23043C10.9382 2.15228 10.4185 1.62089 9.84807 1.05043L8.80873 0.0149972L8.38675 0.00327539C8.02727 -0.00453901 7.95304 0.00327539 7.85535 0.0657921Z" fill="#CB2028"/>
<path d="M0.781318 1.27288C0.523438 1.44871 0.523438 1.45261 0.523438 2.74202C0.523438 4.04315 0.539067 4.17209 0.785226 4.65659C0.972776 5.03169 1.38304 5.44196 1.75814 5.6295C2.28953 5.8952 2.22701 5.89129 5.05198 5.89129H7.59563V6.87202C7.59563 7.78242 7.59953 7.86447 7.67377 7.98169C7.80662 8.19659 7.95119 8.24739 8.40834 8.23176L8.80689 8.21613L9.97126 7.05176L11.1317 5.89129H13.8317H16.5316L16.6644 5.80143C16.8246 5.69593 16.934 5.49275 16.934 5.30129C16.934 5.21924 16.8715 5.03169 16.7778 4.83633C16.4964 4.25805 15.9025 3.76964 15.2695 3.60553C15.0703 3.55474 14.2927 3.54692 8.96318 3.54692H2.88735L2.35986 2.49195C2.06291 1.89805 1.78549 1.38619 1.72297 1.32758C1.62139 1.2299 1.58231 1.22208 1.2541 1.21036C0.949332 1.20255 0.879001 1.21036 0.781318 1.27288Z" fill="#CB2028"/>
<path d="M1.9073 7.17692C1.73147 7.30976 0.684319 8.36473 0.586637 8.5093C0.49677 8.64606 0.504584 9.00553 0.598359 9.1501C0.719485 9.33374 0.867962 9.40798 1.11803 9.40798C1.30949 9.40798 1.36028 9.39235 1.51657 9.27122L1.69631 9.13447V11.5296C1.69631 13.8037 1.70021 13.9443 1.77445 14.2335C1.98154 15.0384 2.52074 15.7182 3.25922 16.1051C3.69293 16.3317 3.97426 16.4059 4.47439 16.4294L4.93154 16.4528L4.79869 16.6247C4.68538 16.7771 4.66585 16.8279 4.66585 17.0194C4.66585 17.4023 4.87684 17.6133 5.25585 17.6133C5.43558 17.6133 5.50201 17.5937 5.62704 17.5C5.80287 17.3671 6.85002 16.3122 6.9477 16.1676C6.98677 16.109 7.01022 15.9918 7.01022 15.8511C7.01022 15.6714 6.99068 15.6049 6.89691 15.4799C6.76406 15.3041 5.70909 14.2569 5.56452 14.1592C5.42777 14.0694 5.0683 14.0772 4.92373 14.171C4.74008 14.2921 4.66585 14.4406 4.66585 14.6906C4.66585 14.8821 4.68147 14.9329 4.8026 15.0892C4.93154 15.2611 4.93545 15.2689 4.84949 15.2689C3.81796 15.2533 3.02869 14.6164 2.90757 13.6982C2.88803 13.5419 2.86849 12.4518 2.86849 11.2757V9.13447L3.04823 9.27122C3.20452 9.39235 3.25531 9.40798 3.44677 9.40798C3.82969 9.40798 4.04068 9.19698 4.04068 8.81798C4.04068 8.63824 4.02114 8.57182 3.92737 8.44678C3.79452 8.27096 2.73955 7.2238 2.59498 7.12612C2.53637 7.08705 2.41916 7.0636 2.27849 7.0636C2.09876 7.0636 2.03233 7.08314 1.9073 7.17692Z" fill="#CB2028"/>
<path d="M12.5458 7.13643C12.3739 7.24974 12.3192 7.35524 12.2058 7.80848L12.0964 8.23438H14.0618H16.0272L15.9178 7.80848C15.8045 7.35524 15.7497 7.24974 15.5778 7.13643C15.4762 7.0661 15.3629 7.06219 14.0618 7.06219C12.7607 7.06219 12.6474 7.0661 12.5458 7.13643Z" fill="#CB2028"/>
<path d="M10.3677 9.48151C9.71522 9.68859 9.27761 10.2434 9.15648 11.021C9.12913 11.1734 9.09787 11.314 9.08615 11.3297C9.07443 11.3453 8.94158 11.314 8.79701 11.2632C8.45708 11.1382 8.02727 11.1304 7.85535 11.2398C7.67562 11.3609 7.59747 11.5133 7.59747 11.7477C7.59747 12.1072 7.78112 12.3026 8.16794 12.3573C8.47661 12.3963 8.73059 12.6152 8.73059 12.834V12.9238H14.064H19.3975V12.834C19.3975 12.6152 19.6515 12.3963 19.9601 12.3573C20.343 12.3065 20.5306 12.1072 20.5306 11.7438C20.5306 11.5133 20.4525 11.357 20.2727 11.2398C20.1047 11.1304 19.671 11.1382 19.335 11.2593C19.1904 11.314 19.0575 11.3492 19.0419 11.3414C19.0263 11.3297 19.0028 11.2203 18.9872 11.0991C18.8895 10.2981 18.4246 9.68859 17.7681 9.48542C17.522 9.41118 17.4126 9.40727 14.0484 9.41118C10.8327 9.41118 10.5709 9.41508 10.3677 9.48151Z" fill="#CB2028"/>
<path d="M9.35798 14.1768C8.89301 14.3448 8.54917 14.6574 8.32646 15.1107L8.20142 15.3685L8.1897 16.5095L8.17798 17.6543H14.0624H19.9467L19.935 16.5095L19.9233 15.3685L19.7904 15.095C19.6146 14.7356 19.3059 14.4269 18.9465 14.251L18.673 14.1182L14.121 14.1104C9.70573 14.1026 9.56116 14.1026 9.35798 14.1768Z" fill="#CB2028"/>
<path d="M8.1817 19.2244C8.1817 19.6659 8.22468 19.7792 8.43958 19.9238C8.54508 19.9941 8.64667 19.998 9.93998 19.998C11.2333 19.998 11.3349 19.9941 11.4404 19.9238C11.6553 19.7792 11.6983 19.6659 11.6983 19.2244V18.8259H9.93998H8.1817V19.2244Z" fill="#CB2028"/>
<path d="M16.428 19.2244C16.428 19.6659 16.471 19.7792 16.6859 19.9238C16.7914 19.9941 16.8929 19.998 18.1863 19.998C19.4796 19.998 19.5812 19.9941 19.6867 19.9238C19.9016 19.7792 19.9445 19.6659 19.9445 19.2244V18.8259H18.1863H16.428V19.2244Z" fill="#CB2028"/>
</svg>
