<svg width="20" height="20" viewBox="0 0 20 20" fill="none" xmlns="http://www.w3.org/2000/svg">
<path d="M6.33483 0.0890069C6.25001 0.173829 6.24554 0.236329 6.24554 2.41044V4.64258H6.68751H7.12947L7.06251 4.33901C7.02233 4.15597 7.00447 3.86133 7.0134 3.57115C7.02679 3.15597 7.04019 3.07115 7.16519 2.81222C7.24108 2.65151 7.3884 2.42829 7.49108 2.31222C7.74108 2.03097 8.27233 1.68276 8.63394 1.56222C9.1384 1.39258 9.43751 1.46847 10.0982 1.93276C10.1563 1.97294 10.192 1.97294 10.2545 1.93276C10.933 1.45508 11.2322 1.38365 11.7589 1.58454C12.1652 1.73633 12.5804 2.00865 12.8304 2.28544L13.0313 2.50865L13.2322 2.28544C13.4822 2.00865 13.8973 1.73633 14.3036 1.58454C14.8304 1.38365 15.1295 1.45508 15.8125 1.93276C15.8705 1.97294 15.9063 1.97294 15.9688 1.93276C16.625 1.46847 16.9241 1.39258 17.4286 1.56222C17.7902 1.68276 18.3214 2.03097 18.5714 2.31222C18.6741 2.42829 18.8214 2.65151 18.8973 2.81222C19.0179 3.06669 19.0357 3.15597 19.0491 3.54883C19.058 3.80776 19.0357 4.13365 19 4.31669L18.9375 4.64258H19.3795H19.817V2.41044C19.817 0.236329 19.8125 0.173829 19.7277 0.0890069C19.6384 -0.00027895 19.5804 -0.00027895 13.0313 -0.00027895C6.48215 -0.00027895 6.42412 -0.00027895 6.33483 0.0890069Z" fill="#CB2028"/>
<path d="M8.62542 2.27651C8.26828 2.44169 7.9156 2.77204 7.78167 3.05776C7.65221 3.33008 7.63882 3.85686 7.74596 4.33454L7.81739 4.64258H10.1745H12.5317L12.6031 4.33454C12.6879 3.96401 12.6969 3.40597 12.621 3.15597C12.5406 2.88365 12.1477 2.48633 11.7727 2.29883C11.2861 2.05776 11.1611 2.08008 10.5585 2.5399C10.3977 2.66044 10.2504 2.73633 10.1745 2.73633C10.0986 2.73633 9.95132 2.66044 9.7906 2.5399C9.20132 2.08901 9.07185 2.06222 8.62542 2.27651Z" fill="#CB2028"/>
<path d="M14.3397 2.27651C13.9825 2.44169 13.6298 2.77204 13.4959 3.05776C13.3664 3.33008 13.353 3.85686 13.4602 4.33454L13.5316 4.64258H15.8888H18.2459L18.3173 4.33454C18.4022 3.96401 18.4111 3.40597 18.3352 3.15597C18.2548 2.88365 17.862 2.48633 17.487 2.29883C17.0004 2.05776 16.8754 2.08008 16.2727 2.5399C16.112 2.66044 15.9647 2.73633 15.8888 2.73633C15.8129 2.73633 15.6655 2.66044 15.5048 2.5399C14.9155 2.08901 14.7861 2.06222 14.3397 2.27651Z" fill="#CB2028"/>
<path d="M6.24554 8.53571V11.7188L6.65179 11.0179C7.0759 10.2768 7.31251 9.99554 7.65626 9.81696C7.81251 9.73214 7.85269 9.69196 7.83483 9.62054C7.77679 9.36607 7.72322 8.72768 7.69644 7.94643C7.66519 7 7.59376 6.37946 7.43751 5.76786L7.33483 5.37946L6.79019 5.36607L6.24554 5.35268V8.53571Z" fill="#CB2028"/>
<path d="M8.05414 5.47615C8.23271 6.15918 8.30414 6.6949 8.34432 7.6324C8.39342 8.73061 8.46039 9.5074 8.51396 9.55651C8.53182 9.57436 8.63896 9.60115 8.75057 9.61901L8.95592 9.65026L9.0095 9.43597C9.04075 9.31544 9.08539 8.91811 9.10771 8.55204C9.16575 7.63686 9.25057 7.36008 9.5586 7.06543C9.7461 6.88686 9.89789 6.82883 10.1791 6.82883C10.4559 6.82883 10.6479 6.90918 10.8309 7.10115C11.0631 7.34668 11.1613 7.6324 11.2104 8.18597C11.2863 9.17258 11.3309 9.45383 11.4336 9.71276C11.572 10.0654 11.6747 10.0699 11.7907 9.73954C11.8934 9.44936 11.947 8.90472 12.005 7.61008C12.0452 6.6949 12.1211 6.14579 12.2952 5.47615L12.3265 5.35561H10.1747H8.02289L8.05414 5.47615Z" fill="#CB2028"/>
<path d="M13.7684 5.47615C13.9425 6.14579 14.0184 6.6949 14.0586 7.61008C14.1166 8.90472 14.1702 9.44936 14.2729 9.73954C14.389 10.0699 14.4916 10.0654 14.63 9.71276C14.7327 9.45383 14.7774 9.17258 14.8533 8.18597C14.9024 7.6324 15.0006 7.34668 15.2327 7.10115C15.4158 6.90918 15.6077 6.82883 15.889 6.82883C16.1702 6.82883 16.3622 6.90918 16.5452 7.10115C16.7774 7.34668 16.8756 7.6324 16.9247 8.18597C17.0006 9.17258 17.0452 9.45383 17.1479 9.71276C17.2863 10.0654 17.389 10.0699 17.505 9.73954C17.6077 9.44936 17.6613 8.90472 17.7193 7.61008C17.7595 6.6949 17.8354 6.14579 18.0095 5.47615L18.0408 5.35561H15.889H13.7372L13.7684 5.47615Z" fill="#CB2028"/>
<path d="M18.7322 5.38811C18.6831 5.47294 18.5179 6.22294 18.4598 6.62919C18.4241 6.87472 18.3795 7.4774 18.3661 7.96847C18.2991 9.99079 18.0357 10.6694 17.3036 10.6694C16.7232 10.6694 16.3706 9.95954 16.2902 8.60686C16.2366 7.71847 16.1563 7.49972 15.8884 7.49972C15.6206 7.49972 15.5402 7.71847 15.4866 8.60686C15.4018 9.98633 15.0581 10.6694 14.442 10.6694C14.1473 10.6694 13.942 10.5354 13.7768 10.2319C13.5491 9.80776 13.4777 9.41044 13.4286 8.21401C13.4063 7.61133 13.3572 6.91044 13.3215 6.65597C13.25 6.13811 13.0804 5.40151 13.0313 5.40151C12.9866 5.40151 12.817 6.11579 12.7456 6.62919C12.7098 6.87472 12.6652 7.4774 12.6518 7.96847C12.5848 9.99079 12.3215 10.6694 11.5893 10.6694C11.009 10.6694 10.6563 9.95954 10.5759 8.60686C10.5223 7.71847 10.442 7.49972 10.1741 7.49972C9.90628 7.49972 9.83038 7.71401 9.77235 8.60686C9.74556 9.0399 9.69645 9.42829 9.63842 9.62919L9.54913 9.95061L9.76788 10.156C10.1875 10.5488 10.4107 11.1694 10.317 11.6828C10.2902 11.8256 10.2545 11.9863 10.2366 12.0399L10.2098 12.1426H14.9241C19.5804 12.1426 19.6384 12.1426 19.7277 12.0533C19.817 11.964 19.817 11.906 19.817 8.66044V5.35686H19.2857C18.9911 5.35686 18.7411 5.37026 18.7322 5.38811Z" fill="#CB2028"/>
<path d="M8.10714 10.3304C8.01786 10.3661 7.875 10.442 7.79464 10.5C7.62946 10.6295 7.66964 10.567 5.75893 13.8616C4.25893 16.4554 4.27232 16.4375 3.99554 16.3661C3.81696 16.3214 3.75893 16.1339 3.73214 15.4911C3.70536 14.9241 3.625 14.4063 3.49107 13.8839C3.37054 13.3973 3.4375 13.2902 3.92857 13.2098C4.52679 13.1116 5.06696 12.7946 5.37054 12.3571L5.53125 12.1205V11.2813C5.53125 10.8214 5.51786 10.4464 5.5 10.4464C5.47768 10.4464 4.95536 10.5759 4.33036 10.7366L3.19643 11.0179L1.86161 12.3527L0.53125 13.683V16.8393V20H3.68304H6.83036L6.98661 19.6652C7.27232 19.0491 7.52232 18.0402 7.69643 16.7857C7.89732 15.3616 8.41518 13.9464 9.30357 12.3884C9.45982 12.1161 9.60714 11.808 9.63839 11.6964C9.75446 11.2679 9.5625 10.7813 9.17411 10.5134C8.8125 10.2634 8.46429 10.2054 8.10714 10.3304Z" fill="#CB2028"/>
<path d="M4.97339 13.5537C4.87518 13.6117 4.66536 13.701 4.50464 13.7546C4.34393 13.8081 4.21 13.8573 4.20107 13.8617C4.18768 13.8751 4.35732 14.8706 4.37964 14.8885C4.3975 14.9064 5.21893 13.509 5.21893 13.4644C5.21893 13.4198 5.15643 13.4421 4.97339 13.5537Z" fill="#CB2028"/>
</svg>
