<svg width="20" height="17" viewBox="0 0 20 17" fill="none" xmlns="http://www.w3.org/2000/svg">
<path d="M9.39547 0.240595C8.18572 0.328899 6.98479 0.704187 5.97813 1.30907C4.79045 2.01991 3.78821 3.04423 3.11711 4.22307C2.87869 4.65135 2.50781 5.50789 2.45925 5.75514C2.43276 5.87435 2.41951 5.88318 2.15902 5.90084C1.43051 5.94499 0.609293 6.63375 0.282571 7.48147C0.0706427 8.02453 0 8.44397 0 9.13715C0 10.029 0.203098 10.8237 0.591632 11.4816C0.830051 11.8878 1.31572 12.3558 1.67335 12.5236C1.94709 12.656 2.01773 12.6693 2.37536 12.6649C2.6491 12.6649 2.8831 12.634 3.12594 12.5633C3.75289 12.3867 3.92067 12.2145 3.91184 11.7421C3.91184 11.5964 3.78821 10.6736 3.63368 9.68905C3.48357 8.70447 3.36436 7.77287 3.36436 7.61834C3.36436 7.46381 3.39526 7.16358 3.435 6.95606C3.94274 4.19217 6.05761 2.0773 8.84358 1.53865C9.47053 1.41944 10.6096 1.42828 11.2278 1.56073C12.7378 1.87862 13.9166 2.54973 14.9277 3.66235C15.8549 4.68225 16.4597 6.01563 16.6054 7.37109C16.6408 7.68456 16.6231 7.87442 16.4377 9.093L16.2301 10.4617L16.0094 10.9253C15.0822 12.8636 13.3647 14.2058 11.2675 14.634C10.9143 14.7047 10.6626 14.7223 9.85023 14.7223C9.26743 14.7223 8.79501 14.7444 8.68905 14.7709C8.46387 14.8327 8.20338 15.0932 8.14157 15.3184C8.07975 15.5391 8.07975 15.9718 8.13715 16.1882C8.19455 16.3869 8.36232 16.5988 8.55218 16.7003C8.67139 16.7666 8.84358 16.7754 9.99152 16.7754C11.1395 16.7754 11.3117 16.7666 11.4309 16.7003C11.709 16.5502 11.89 16.2323 11.89 15.8924C11.89 15.7643 11.9033 15.7555 12.2521 15.6584C13.091 15.4243 14.1065 14.9034 14.8526 14.3161C15.2985 13.9673 15.9741 13.2786 16.3185 12.8194L16.5745 12.4794L17.0028 12.5898C17.5591 12.7311 17.8991 12.7134 18.3097 12.5236C19.1839 12.113 19.8285 10.9827 19.9742 9.59633C20.1243 8.17023 19.6077 6.77063 18.7203 6.19665C18.4598 6.02888 18.005 5.89201 17.7004 5.89201C17.5635 5.89201 17.5459 5.87876 17.5194 5.75072C17.4664 5.52555 17.1176 4.67784 16.9366 4.35553C16.1948 3.0089 15.0822 1.89187 13.7444 1.15453C12.5126 0.479013 10.8834 0.134632 9.39547 0.240595Z" fill="#CB2028"/>
<path d="M9.54072 2.67456C7.56273 2.80701 5.779 4.05651 4.99751 5.85789C4.38381 7.27075 4.37939 8.93085 4.9931 10.3393C5.17854 10.772 5.65537 11.527 5.87613 11.7345L6.00417 11.8581L5.83198 12.6175C5.63771 13.4608 5.6333 13.6904 5.80107 13.867C5.99093 14.0657 6.1587 14.0215 7.01524 13.5491L7.77907 13.1297L8.1676 13.2621C9.81446 13.8229 11.6423 13.5888 13.0684 12.6352C14.2429 11.8493 15.042 10.6616 15.3378 9.24433C15.457 8.66152 15.4703 7.69902 15.3643 7.10738C15.0597 5.42079 14.0309 4.0256 12.5254 3.25736C11.607 2.78494 10.6622 2.60392 9.54072 2.67456ZM7.49208 7.14712C7.78348 7.23542 7.97775 7.39879 8.11021 7.66811C8.25591 7.95951 8.26032 8.22442 8.11904 8.52907C7.88062 9.04123 7.28015 9.24433 6.77683 8.98825C5.9821 8.57764 6.08806 7.42086 6.9446 7.15154C7.20068 7.07206 7.24483 7.07206 7.49208 7.14712ZM10.4105 7.20452C10.8918 7.44735 11.1213 8.05223 10.9006 8.50258C10.7372 8.84696 10.3354 9.11629 9.99107 9.11629C9.58487 9.11629 9.1566 8.78073 9.03739 8.37895C8.80339 7.56656 9.66434 6.83364 10.4105 7.20452ZM13.0199 7.15154C13.8897 7.41203 14.0089 8.57322 13.2053 8.98825C12.702 9.24433 12.1015 9.04123 11.8631 8.52907C11.7218 8.22442 11.7262 7.95951 11.8719 7.66811C12.0044 7.4032 12.1986 7.23542 12.4724 7.15154C12.7196 7.07206 12.7594 7.07206 13.0199 7.15154Z" fill="#CB2028"/>
</svg>
