<svg width="146" height="26" viewBox="0 0 146 26" fill="none" xmlns="http://www.w3.org/2000/svg">
<path fill-rule="evenodd" clip-rule="evenodd" d="M11.2136 24.5317C12.2202 23.7282 13.7798 23.7282 14.7864 24.5317C15.7972 25.3386 16.9834 26 18.0267 26C20.1067 26 26 17.3356 26 9.36443C26 1.39321 19.8748 0.783121 18.0267 1.04664C15.943 1.34374 14.2853 2.66398 13.2731 3.47014C13.113 3.59763 12.887 3.59763 12.7269 3.47014C11.7147 2.66398 10.057 1.34374 7.97333 1.04664C6.12518 0.783121 0 1.39321 0 9.36443C0 17.3356 5.89333 26 7.97333 26C9.0166 26 10.2028 25.3386 11.2136 24.5317ZM5 15.0504C9.26716 20.3165 16.7328 20.3165 21 15.0504L18.9246 13C15.7644 16.8999 10.2356 16.8999 7.07543 13L5 15.0504Z" fill="#CB2028"/>
<path d="M34 1.39715H45.076V4.60543H37.5403V8.56404H43.3058V11.7723H37.5403V16.3777H45.3288V19.586H34V1.39715Z" fill="white"/>
<path d="M51.0154 19.586H47.6269V0.181112H51.0154V19.586Z" fill="white"/>
<path d="M54.3439 6.54593H57.7324V19.586H54.3439V6.54593ZM57.96 2.09573C57.96 2.69944 57.783 3.19965 57.429 3.59638C57.0918 3.9931 56.6282 4.19146 56.0382 4.19146C55.4481 4.19146 54.9761 3.9931 54.622 3.59638C54.2849 3.18241 54.1163 2.68219 54.1163 2.09573C54.1163 1.50927 54.2849 1.01768 54.622 0.620957C54.9761 0.206986 55.4481 0 56.0382 0C56.6282 0 57.0918 0.198361 57.429 0.595084C57.783 0.991807 57.96 1.49202 57.96 2.09573Z" fill="white"/>
<path d="M67.4081 16.9211C67.7621 16.9211 68.0656 16.9038 68.3184 16.8693C68.5882 16.8348 68.8158 16.8003 69.0012 16.7658L69.2288 19.5602C68.9928 19.6119 68.6388 19.6723 68.1667 19.7413C67.7115 19.8103 67.1636 19.8448 66.523 19.8448C64.9383 19.8448 63.8088 19.4739 63.1345 18.7322C62.4602 17.9733 62.123 16.9556 62.123 15.6792V9.4696H59.8218V6.54593H62.123V3.23415L65.5115 2.45796V6.54593H68.7989V9.4696H65.5115V15.11C65.5115 15.8689 65.6801 16.3605 66.0173 16.5847C66.3544 16.809 66.818 16.9211 67.4081 16.9211Z" fill="white"/>
<path d="M78.5127 13.8163C78.1924 13.7646 77.8299 13.7128 77.4253 13.6611C77.0207 13.6093 76.5487 13.5834 76.0092 13.5834C75.1495 13.5834 74.5594 13.7559 74.2391 14.1009C73.9188 14.4459 73.7586 14.9547 73.7586 15.6274C73.7586 16.1794 73.9441 16.6106 74.315 16.9211C74.6859 17.2143 75.1663 17.3609 75.7564 17.3609C76.1104 17.3609 76.456 17.3178 76.7932 17.2316C77.1303 17.1281 77.4253 16.9815 77.6782 16.7917C77.9311 16.602 78.1334 16.3777 78.2851 16.119C78.4369 15.843 78.5127 15.5326 78.5127 15.1876V13.8163ZM75.0483 19.9224C74.492 19.9224 73.9525 19.8534 73.4299 19.7154C72.9242 19.5774 72.469 19.3445 72.0644 19.0168C71.6598 18.6891 71.331 18.2579 71.0782 17.7232C70.8421 17.1884 70.7241 16.5157 70.7241 15.705C70.7241 14.2389 71.1456 13.135 71.9885 12.3933C72.8483 11.6516 74.1632 11.2807 75.9334 11.2807C76.1694 11.2807 76.4223 11.2893 76.692 11.3066C76.9786 11.3238 77.2483 11.3497 77.5012 11.3842C77.7541 11.4015 77.9732 11.4187 78.1587 11.436C78.3441 11.4532 78.4621 11.4705 78.5127 11.4877V11.022C78.5127 10.332 78.2936 9.8232 77.8552 9.49547C77.4169 9.1505 76.8184 8.97801 76.0598 8.97801C75.0483 8.97801 74.2222 9.0815 73.5816 9.28849C72.941 9.49547 72.4943 9.68521 72.2414 9.8577L71.2552 7.55498C71.3732 7.46874 71.567 7.34799 71.8368 7.19276C72.1065 7.03752 72.4521 6.8909 72.8736 6.75291C73.3119 6.59767 73.8176 6.46831 74.3908 6.36481C74.964 6.24407 75.6215 6.1837 76.3633 6.1837C78.2683 6.1837 79.6422 6.6063 80.4851 7.45149C81.3281 8.27943 81.7495 9.42648 81.7495 10.8926V19.586H78.8162L78.715 18.2665C78.3947 18.6632 77.9311 19.0427 77.3242 19.4049C76.7173 19.7499 75.9587 19.9224 75.0483 19.9224Z" fill="white"/>
<path d="M89.0116 11.7206C88.371 11.5308 87.7641 11.2807 87.1909 10.9702C86.6346 10.6598 86.1457 10.2975 85.7242 9.88357C85.3028 9.45235 84.9656 8.96076 84.7127 8.4088C84.4767 7.83959 84.3587 7.21863 84.3587 6.54593C84.3587 4.7348 84.8813 3.35489 85.9265 2.40621C86.9717 1.45752 88.489 0.983182 90.4783 0.983182C91.0346 0.983182 91.5825 1.0263 92.122 1.11255C92.6615 1.19879 93.1672 1.31091 93.6392 1.4489C94.1113 1.58689 94.5412 1.74213 94.9289 1.91462C95.3167 2.08711 95.6538 2.25959 95.9404 2.43208L94.6507 5.17464C94.3136 4.96766 93.7741 4.7348 93.0323 4.47607C92.3074 4.21733 91.4392 4.08797 90.4277 4.08797C90.1411 4.08797 89.8461 4.12247 89.5427 4.19146C89.2561 4.26046 88.9863 4.3812 88.7335 4.55369C88.4974 4.70893 88.3036 4.92454 88.1518 5.20052C88.0001 5.45925 87.9242 5.77835 87.9242 6.15783C87.9242 6.39931 87.958 6.63217 88.0254 6.8564C88.0928 7.06339 88.2193 7.27038 88.4047 7.47736C88.607 7.68435 88.8683 7.88271 89.1886 8.07244C89.5258 8.24493 89.9557 8.4088 90.4783 8.56404L92.0967 9.02975C93.5634 9.44373 94.6929 10.0733 95.4852 10.9185C96.2944 11.7464 96.699 12.8935 96.699 14.3596C96.699 15.2221 96.5305 15.9983 96.1933 16.6882C95.873 17.3782 95.4262 17.9733 94.853 18.4735C94.2799 18.9564 93.6055 19.3273 92.83 19.586C92.0546 19.862 91.2201 20 90.3266 20C89.5005 20 88.7334 19.931 88.0254 19.793C87.3342 19.6723 86.7189 19.5257 86.1794 19.3532C85.6568 19.1807 85.2185 19.0082 84.8644 18.8357C84.5273 18.6632 84.2997 18.5339 84.1817 18.4476L85.4714 15.5757C85.6737 15.6964 85.935 15.8258 86.2553 15.9638C86.5924 16.1018 86.9633 16.2398 87.3679 16.3777C87.7894 16.4985 88.253 16.602 88.7587 16.6882C89.2645 16.7745 89.7955 16.8176 90.3519 16.8176C90.6553 16.8176 90.9672 16.7831 91.2875 16.7141C91.6247 16.6279 91.9197 16.4985 92.1726 16.326C92.4423 16.1363 92.6615 15.912 92.83 15.6533C92.9986 15.3773 93.0829 15.041 93.0829 14.6442C93.0829 14.42 93.0492 14.1958 92.9818 13.9715C92.9143 13.7301 92.7879 13.5058 92.6025 13.2988C92.417 13.0746 92.1641 12.8676 91.8438 12.6779C91.5404 12.4881 91.1358 12.3243 90.63 12.1863L89.0116 11.7206Z" fill="white"/>
<path d="M113.165 9.18499C112.626 9.18499 112.179 9.31436 111.825 9.57309C111.488 9.81457 111.226 10.1423 111.041 10.5563C110.855 10.953 110.729 11.4101 110.662 11.9276C110.594 12.4278 110.56 12.9452 110.56 13.4799V19.586H107.172V11.4618C107.172 10.6339 107.012 10.0474 106.691 9.70246C106.388 9.35748 105.966 9.18499 105.427 9.18499C104.888 9.18499 104.449 9.31436 104.112 9.57309C103.775 9.81457 103.514 10.1423 103.328 10.5563C103.143 10.953 103.016 11.4101 102.949 11.9276C102.881 12.445 102.848 12.9711 102.848 13.5058V19.586H99.4591V6.54593H102.544L102.671 8.27943C102.789 8.0552 102.957 7.82234 103.176 7.58085C103.396 7.32212 103.648 7.09789 103.935 6.90815C104.239 6.70116 104.576 6.5373 104.947 6.41656C105.317 6.27857 105.722 6.20957 106.16 6.20957C107.931 6.20957 109.136 6.88228 109.776 8.22768C110.131 7.69297 110.603 7.22725 111.193 6.83053C111.783 6.41656 112.575 6.20957 113.57 6.20957C115.188 6.20957 116.377 6.65804 117.135 7.55498C117.894 8.45192 118.273 9.70246 118.273 11.3066V19.586H114.885V11.4618C114.885 10.6339 114.733 10.0474 114.429 9.70246C114.126 9.35748 113.705 9.18499 113.165 9.18499Z" fill="white"/>
<path d="M121.465 6.54593H124.853V19.586H121.465V6.54593ZM125.081 2.09573C125.081 2.69944 124.904 3.19965 124.55 3.59638C124.213 3.9931 123.749 4.19146 123.159 4.19146C122.569 4.19146 122.097 3.9931 121.743 3.59638C121.406 3.18241 121.237 2.68219 121.237 2.09573C121.237 1.50927 121.406 1.01768 121.743 0.620957C122.097 0.206986 122.569 0 123.159 0C123.749 0 124.213 0.198361 124.55 0.595084C124.904 0.991807 125.081 1.49202 125.081 2.09573Z" fill="white"/>
<path d="M131.57 19.586H128.182V0.181112H131.57V19.586Z" fill="white"/>
<path d="M141.195 17.0246C142.021 17.0246 142.713 16.9642 143.269 16.8435C143.825 16.7055 144.247 16.5934 144.533 16.5071L145.343 18.9392C145.005 19.1289 144.449 19.3445 143.674 19.586C142.915 19.8275 141.946 19.9483 140.765 19.9483C138.641 19.9483 137.031 19.3273 135.936 18.0854C134.84 16.8435 134.292 15.1445 134.292 12.9884C134.292 11.9707 134.418 11.0479 134.671 10.2199C134.941 9.37473 135.329 8.6589 135.834 8.07244C136.357 7.46874 136.998 7.01164 137.756 6.70116C138.515 6.37344 139.392 6.20957 140.386 6.20957C141.28 6.20957 142.072 6.34756 142.763 6.62354C143.471 6.88228 144.061 7.29625 144.533 7.86546C145.022 8.43467 145.385 9.17637 145.621 10.0906C145.874 11.0047 146 12.1087 146 13.4023V14.1009H137.605C137.689 14.9288 138.009 15.6274 138.565 16.1966C139.122 16.7486 139.998 17.0246 141.195 17.0246ZM142.814 11.6947C142.746 10.7978 142.536 10.1251 142.182 9.67659C141.828 9.21087 141.221 8.97801 140.361 8.97801C139.501 8.97801 138.844 9.22812 138.388 9.72833C137.95 10.2113 137.689 10.8668 137.605 11.6947H142.814Z" fill="white"/>
<path fill-rule="evenodd" clip-rule="evenodd" d="M116 22.7087C112 27.0971 105 27.0971 101 22.7087L102.946 21C105.908 24.2499 111.092 24.2499 114.054 21L116 22.7087Z" fill="#CB2028"/>
</svg>
